{"glyphs":{"0":{"ha":333,"x_min":14,"x_max":319,"o":"m 319 144 q 276 31 319 71 q 167 -8 233 -8 q 57 31 100 -8 q 14 144 14 71 l 14 828 q 58 940 14 900 q 168 981 101 981 q 277 941 235 981 q 319 828 319 901 l 319 144 m 181 835 q 167 856 181 856 q 153 835 153 856 l 153 138 q 167 117 153 117 q 181 138 181 117 l 181 835 z "},"1":{"ha":278,"x_min":14,"x_max":264,"o":"m 208 125 l 264 125 l 264 0 l 14 0 l 14 125 l 69 125 l 69 783 l 14 783 l 14 894 q 89 910 67 894 q 111 972 111 926 l 208 972 l 208 125 z "},"2":{"ha":333,"x_min":14,"x_max":319,"o":"m 14 125 q 44 267 14 192 q 107 414 74 342 q 158 533 135 476 q 181 633 181 589 l 181 835 q 167 856 181 856 q 153 835 153 856 l 153 604 l 14 604 l 14 828 q 56 941 14 901 q 165 981 99 981 q 276 940 232 981 q 319 828 319 900 l 319 633 q 290 492 319 567 q 226 344 260 417 q 175 229 197 283 q 153 133 153 175 l 153 125 l 319 125 l 319 0 l 14 0 l 14 125 z "},"3":{"ha":333,"x_min":14,"x_max":319,"o":"m 153 646 l 14 646 l 14 828 q 56 941 14 901 q 165 981 99 981 q 276 940 232 981 q 319 828 319 900 l 319 664 q 318 610 319 633 q 310 569 317 586 q 292 540 304 551 q 261 522 281 529 l 261 519 q 310 474 301 507 q 319 378 319 440 l 319 144 q 276 32 319 72 q 165 -8 232 -8 q 56 31 99 -8 q 14 144 14 71 l 14 354 l 153 354 l 153 138 q 167 117 153 117 q 181 138 181 117 l 181 410 q 172 450 181 442 q 125 458 164 458 l 111 458 l 111 583 l 125 583 q 172 592 164 583 q 181 632 181 600 l 181 835 q 167 856 181 856 q 153 835 153 856 l 153 646 z "},"4":{"ha":350,"x_min":14,"x_max":336,"o":"m 14 267 l 100 972 l 308 972 l 308 267 l 336 267 l 336 142 l 308 142 l 308 0 l 169 0 l 169 142 l 14 142 l 14 267 m 169 267 l 193 832 l 190 832 l 142 267 l 169 267 z "},"5":{"ha":333,"x_min":14,"x_max":319,"o":"m 153 507 l 14 507 l 14 972 l 313 972 l 313 847 l 153 847 l 153 644 l 156 643 q 235 708 176 708 q 299 668 279 708 q 319 556 319 628 l 319 144 q 276 31 319 71 q 167 -8 233 -8 q 57 31 100 -8 q 14 144 14 71 l 14 396 l 153 396 l 153 138 q 167 117 153 117 q 181 138 181 117 l 181 576 q 167 597 181 597 q 153 576 153 597 l 153 507 z "},"6":{"ha":333,"x_min":14,"x_max":319,"o":"m 156 546 q 235 611 179 611 q 299 571 279 611 q 319 458 319 531 l 319 144 q 276 31 319 71 q 167 -8 233 -8 q 57 31 100 -8 q 14 144 14 71 l 14 842 q 26 901 14 875 q 60 944 39 926 q 109 971 81 961 q 168 981 138 981 q 277 941 235 981 q 319 828 319 901 l 319 674 l 181 674 l 181 835 q 167 856 181 856 q 153 835 153 856 l 153 547 l 156 546 m 153 138 q 167 117 153 117 q 181 138 181 117 l 181 479 q 167 500 181 500 q 153 479 153 500 l 153 138 z "},"7":{"ha":319,"x_min":14,"x_max":306,"o":"m 306 847 l 181 0 l 42 0 l 165 844 l 163 847 l 14 847 l 14 972 l 306 972 l 306 847 z "},"8":{"ha":333,"x_min":14,"x_max":319,"o":"m 165 981 q 276 941 233 981 q 319 828 319 901 l 319 646 q 308 564 319 593 q 261 522 297 535 l 261 519 q 310 474 301 507 q 319 378 319 440 l 319 144 q 277 31 319 71 q 168 -8 235 -8 q 57 31 100 -8 q 14 144 14 71 l 14 378 q 23 474 14 440 q 72 519 32 507 l 72 522 q 25 564 36 535 q 14 646 14 593 l 14 828 q 56 941 14 901 q 165 981 99 981 m 153 632 q 156 592 153 600 q 167 583 160 583 q 177 592 174 583 q 181 632 181 600 l 181 835 q 167 856 181 856 q 153 835 153 856 l 153 632 m 167 117 q 181 138 181 117 l 181 410 q 177 450 181 442 q 167 458 174 458 q 156 450 160 458 q 153 410 153 442 l 153 138 q 167 117 153 117 z "},"9":{"ha":333,"x_min":14,"x_max":319,"o":"m 167 981 q 276 941 233 981 q 319 828 319 901 l 319 131 q 307 72 319 97 q 274 28 294 46 q 225 1 253 11 q 165 -8 197 -8 q 56 31 99 -8 q 14 144 14 71 l 14 340 l 153 340 l 153 138 q 167 117 153 117 q 181 138 181 117 l 181 467 l 178 468 q 99 403 156 403 q 34 443 54 403 q 14 556 14 483 l 14 828 q 57 941 14 901 q 167 981 100 981 m 181 835 q 167 856 181 856 q 153 835 153 856 l 153 535 q 167 514 153 514 q 181 535 181 514 l 181 835 z "},"\u0000":{"ha":0,"x_min":0,"x_max":0,"o":""},"\r":{"ha":347,"x_min":0,"x_max":0,"o":""}," ":{"ha":125,"x_min":0,"x_max":0,"o":""},"O":{"ha":333,"x_min":14,"x_max":319,"o":"m 319 144 q 276 31 319 71 q 167 -8 233 -8 q 57 31 100 -8 q 14 144 14 71 l 14 828 q 58 940 14 900 q 168 981 101 981 q 277 941 235 981 q 319 828 319 901 l 319 144 m 181 835 q 167 856 181 856 q 153 835 153 856 l 153 138 q 167 117 153 117 q 181 138 181 117 l 181 835 z "},";":{"ha":208,"x_min":28,"x_max":167,"o":"m 28 722 l 167 722 l 167 556 l 28 556 l 28 722 m 28 167 l 167 167 l 167 0 l 138 -117 l 65 -117 l 94 0 l 28 0 l 28 167 z "},"E":{"ha":222,"x_min":14,"x_max":215,"o":"m 208 847 l 153 847 l 153 561 l 201 561 l 201 436 l 153 436 l 153 125 l 215 125 l 215 0 l 14 0 l 14 972 l 208 972 l 208 847 z "},"I":{"ha":167,"x_min":14,"x_max":153,"o":"m 153 0 l 14 0 l 14 972 l 153 972 l 153 0 z "},"H":{"ha":333,"x_min":14,"x_max":319,"o":"m 319 0 l 181 0 l 181 422 l 153 422 l 153 0 l 14 0 l 14 972 l 153 972 l 153 547 l 181 547 l 181 972 l 319 972 l 319 0 z "},"L":{"ha":218,"x_min":14,"x_max":211,"o":"m 153 972 l 153 125 l 211 125 l 211 0 l 14 0 l 14 972 l 153 972 z "},"F":{"ha":215,"x_min":14,"x_max":208,"o":"m 208 847 l 153 847 l 153 547 l 201 547 l 201 422 l 153 422 l 153 0 l 14 0 l 14 972 l 208 972 l 208 847 z "},"T":{"ha":292,"x_min":7,"x_max":285,"o":"m 285 847 l 215 847 l 215 0 l 76 0 l 76 847 l 7 847 l 7 972 l 285 972 l 285 847 z "},"S":{"ha":328,"x_min":11,"x_max":317,"o":"m 317 144 q 274 31 317 71 q 164 -8 231 -8 q 54 31 97 -8 q 11 144 11 71 l 11 342 l 150 342 l 150 138 q 164 117 150 117 q 178 138 178 117 l 178 299 q 155 387 178 343 q 104 478 132 431 q 41 591 71 532 q 11 717 11 650 l 11 828 q 55 940 11 900 q 165 981 99 981 q 274 941 232 981 q 317 828 317 901 l 317 674 l 178 674 l 178 835 q 164 856 178 856 q 150 835 150 856 l 150 717 q 173 628 150 672 q 225 538 196 585 q 288 424 258 483 q 317 299 317 365 l 317 144 z "},"C":{"ha":333,"x_min":14,"x_max":319,"o":"m 181 835 q 167 856 181 856 q 153 835 153 856 l 153 138 q 167 117 153 117 q 181 138 181 117 l 181 411 l 319 411 l 319 144 q 276 31 319 71 q 167 -8 233 -8 q 57 31 100 -8 q 14 144 14 71 l 14 828 q 58 940 14 900 q 168 981 101 981 q 277 941 235 981 q 319 828 319 901 l 319 604 l 181 604 l 181 835 z "},"G":{"ha":333,"x_min":14,"x_max":319,"o":"m 319 513 l 319 0 l 181 0 l 181 56 l 178 57 q 147 8 167 25 q 103 -8 128 -8 q 39 31 64 -8 q 14 144 14 71 l 14 828 q 58 940 14 900 q 168 981 101 981 q 277 941 235 981 q 319 828 319 901 l 319 604 l 181 604 l 181 835 q 167 856 181 856 q 153 835 153 856 l 153 132 q 167 111 153 111 q 181 132 181 111 l 181 388 l 167 388 l 167 513 l 319 513 z "},"U":{"ha":333,"x_min":14,"x_max":319,"o":"m 319 144 q 276 31 319 71 q 167 -8 233 -8 q 57 31 100 -8 q 14 144 14 71 l 14 972 l 153 972 l 153 138 q 167 117 153 117 q 181 138 181 117 l 181 972 l 319 972 l 319 144 z "},"J":{"ha":333,"x_min":14,"x_max":319,"o":"m 319 144 q 276 31 319 71 q 167 -8 233 -8 q 57 31 100 -8 q 14 144 14 71 l 14 411 l 153 411 l 153 138 q 167 117 153 117 q 181 138 181 117 l 181 972 l 319 972 l 319 144 z "},"D":{"ha":333,"x_min":14,"x_max":319,"o":"m 319 139 q 282 33 319 65 q 167 0 244 0 l 14 0 l 14 972 l 168 972 q 282 940 244 972 q 319 833 319 907 l 319 139 m 181 826 q 167 847 181 847 l 153 847 l 153 125 l 167 125 q 181 146 181 125 l 181 826 z "},"B":{"ha":331,"x_min":14,"x_max":319,"o":"m 319 664 q 318 610 319 633 q 310 569 317 586 q 292 540 304 551 q 261 522 281 529 l 261 519 q 310 474 301 507 q 319 378 319 440 l 319 139 q 282 33 319 65 q 167 0 244 0 l 14 0 l 14 972 l 168 972 q 282 940 244 972 q 319 833 319 907 l 319 664 m 181 826 q 167 847 181 847 l 153 847 l 153 583 l 167 583 q 181 604 181 583 l 181 826 m 181 438 q 167 458 181 458 l 153 458 l 153 125 l 167 125 q 181 146 181 125 l 181 438 z "},"R":{"ha":333,"x_min":14,"x_max":336,"o":"m 181 410 q 167 431 181 431 l 153 431 l 153 0 l 14 0 l 14 972 l 168 972 q 282 940 244 972 q 319 833 319 907 l 319 636 q 318 582 319 606 q 310 541 317 558 q 292 513 304 524 q 261 494 281 501 l 261 492 q 310 446 301 479 q 319 350 319 413 l 319 128 q 320 88 319 104 q 322 58 321 72 q 327 32 324 44 q 336 3 331 19 l 336 0 l 193 0 q 183 53 186 28 q 181 126 181 79 l 181 410 m 181 826 q 167 847 181 847 l 153 847 l 153 556 l 167 556 q 181 576 181 556 l 181 826 z "},"P":{"ha":333,"x_min":14,"x_max":319,"o":"m 319 542 q 282 435 319 468 q 167 403 244 403 l 153 403 l 153 0 l 14 0 l 14 972 l 168 972 q 282 940 244 972 q 319 833 319 907 l 319 542 m 181 826 q 167 847 181 847 l 153 847 l 153 528 l 167 528 q 181 549 181 528 l 181 826 z "},"Q":{"ha":333,"x_min":14,"x_max":319,"o":"m 319 144 q 293 51 319 88 q 222 0 267 14 l 222 -18 q 224 -32 222 -29 q 238 -35 226 -35 l 288 -35 l 288 -147 l 233 -147 q 140 -124 169 -147 q 111 -35 111 -100 l 111 0 q 40 51 67 15 q 14 144 14 88 l 14 828 q 58 940 14 900 q 168 981 101 981 q 277 941 235 981 q 319 828 319 901 l 319 144 m 181 835 q 167 856 181 856 q 153 835 153 856 l 153 138 q 167 117 153 117 q 181 138 181 117 l 181 835 z "},"A":{"ha":347,"x_min":0,"x_max":347,"o":"m 347 0 l 194 0 l 186 232 l 147 232 l 139 0 l 0 0 l 76 972 l 271 972 l 347 0 m 182 357 l 172 651 l 168 819 l 165 819 l 161 651 l 151 357 l 182 357 z "},"V":{"ha":339,"x_min":0,"x_max":339,"o":"m 267 0 l 72 0 l 0 972 l 153 972 l 175 153 l 178 153 l 200 972 l 339 972 l 267 0 z "},"W":{"ha":540,"x_min":0,"x_max":540,"o":"m 489 0 l 301 0 l 278 665 l 275 818 l 272 818 l 269 665 l 246 0 l 58 0 l 0 972 l 160 972 l 161 321 l 161 153 l 164 153 l 169 321 l 200 972 l 347 972 l 378 321 l 383 153 l 386 153 l 388 321 l 388 972 l 540 972 l 489 0 z "},"K":{"ha":350,"x_min":14,"x_max":350,"o":"m 272 528 l 272 525 l 350 0 l 207 0 l 156 447 l 153 447 l 153 0 l 14 0 l 14 972 l 153 972 l 153 579 l 156 579 l 207 972 l 350 972 l 272 528 z "},"X":{"ha":347,"x_min":0,"x_max":347,"o":"m 285 500 l 285 497 l 347 0 l 206 0 l 182 276 l 176 415 l 174 415 l 168 276 l 142 0 l 0 0 l 63 497 l 63 500 l 4 972 l 146 972 l 167 721 l 172 582 l 175 582 l 181 721 l 201 972 l 343 972 l 285 500 z "},"Y":{"ha":339,"x_min":0,"x_max":339,"o":"m 239 319 l 239 0 l 100 0 l 100 319 l 0 972 l 142 972 l 163 638 l 168 499 l 171 499 l 176 638 l 197 972 l 339 972 l 239 319 z "},"M":{"ha":529,"x_min":14,"x_max":514,"o":"m 514 0 l 382 0 l 390 625 l 389 792 l 386 792 l 376 625 l 326 0 l 203 0 l 153 625 l 142 792 l 139 792 l 138 625 l 146 0 l 14 0 l 14 972 l 240 972 l 257 418 l 264 264 l 267 264 l 272 418 l 288 972 l 514 972 l 514 0 z "},"N":{"ha":404,"x_min":14,"x_max":389,"o":"m 389 0 l 215 0 l 119 750 l 117 750 l 139 438 l 146 0 l 14 0 l 14 972 l 188 972 l 283 222 l 286 222 l 264 535 l 257 972 l 389 972 l 389 0 z "},"Z":{"ha":271,"x_min":7,"x_max":264,"o":"m 264 847 l 149 125 l 263 125 l 263 0 l 7 0 l 7 125 l 122 847 l 14 847 l 14 972 l 264 972 l 264 847 z "},".":{"ha":194,"x_min":28,"x_max":167,"o":"m 28 167 l 167 167 l 167 0 l 28 0 l 28 167 z "},"o":{"ha":322,"x_min":14,"x_max":308,"o":"m 308 144 q 267 31 308 71 q 161 -8 225 -8 q 56 31 97 -8 q 14 144 14 71 l 14 647 q 56 760 14 719 q 163 800 99 800 q 267 760 226 800 q 308 647 308 721 l 308 144 m 175 654 q 161 675 175 675 q 147 654 147 675 l 147 138 q 161 117 147 117 q 175 138 175 117 l 175 654 z "},"l":{"ha":161,"x_min":14,"x_max":147,"o":"m 14 1014 l 147 1014 l 147 0 l 14 0 l 14 1014 z "},"b":{"ha":322,"x_min":14,"x_max":308,"o":"m 14 1014 l 147 1014 l 147 735 l 150 735 q 181 783 161 765 q 229 800 201 800 q 289 763 269 800 q 308 647 308 726 l 308 144 q 228 -8 308 -8 q 150 56 172 -8 l 147 56 l 147 0 l 14 0 l 14 1014 m 175 654 q 161 675 175 675 q 147 654 147 675 l 147 138 q 161 117 147 117 q 175 138 175 117 l 175 654 z "},"d":{"ha":322,"x_min":14,"x_max":308,"o":"m 175 0 l 175 56 l 172 56 q 94 -8 150 -8 q 14 144 14 -8 l 14 647 q 33 763 14 726 q 93 800 53 800 q 141 783 121 800 q 172 735 161 765 l 175 735 l 175 1014 l 308 1014 l 308 0 l 175 0 m 147 138 q 161 117 147 117 q 175 138 175 117 l 175 654 q 161 675 175 675 q 147 654 147 675 l 147 138 z "},"q":{"ha":322,"x_min":14,"x_max":308,"o":"m 308 -222 l 175 -222 l 175 57 l 172 57 q 141 9 161 26 q 93 -8 121 -8 q 33 28 53 -8 q 14 144 14 65 l 14 647 q 34 763 14 726 q 94 800 54 800 q 172 736 150 800 l 175 736 l 175 792 l 308 792 l 308 -222 m 147 138 q 161 117 147 117 q 175 138 175 117 l 175 654 q 161 675 175 675 q 147 654 147 675 l 147 138 z "},"p":{"ha":322,"x_min":14,"x_max":308,"o":"m 147 792 l 147 736 l 150 736 q 228 800 172 800 q 288 763 268 800 q 308 647 308 726 l 308 144 q 289 28 308 65 q 229 -8 269 -8 q 181 9 201 -8 q 150 57 161 26 l 147 57 l 147 -222 l 14 -222 l 14 792 l 147 792 m 175 654 q 161 675 175 675 q 147 654 147 675 l 147 138 q 161 117 147 117 q 175 138 175 117 l 175 654 z "},"c":{"ha":322,"x_min":14,"x_max":308,"o":"m 175 654 q 161 675 175 675 q 147 654 147 675 l 147 138 q 161 117 147 117 q 175 138 175 117 l 175 338 l 308 338 l 308 144 q 267 31 308 71 q 161 -8 225 -8 q 56 31 97 -8 q 14 144 14 71 l 14 647 q 56 760 14 719 q 163 800 99 800 q 267 760 226 800 q 308 647 308 721 l 308 490 l 175 490 l 175 654 z "},"s":{"ha":317,"x_min":11,"x_max":306,"o":"m 306 144 q 264 31 306 71 q 158 -8 222 -8 q 53 31 94 -8 q 11 144 11 71 l 11 279 l 144 279 l 144 138 q 158 117 144 117 q 172 138 172 117 l 172 260 q 152 318 172 289 q 106 379 132 347 q 42 463 72 418 q 11 568 11 508 l 11 647 q 53 760 11 719 q 160 800 96 800 q 265 760 224 800 q 306 647 306 721 l 306 550 l 172 550 l 172 654 q 158 675 172 675 q 144 654 144 675 l 144 568 q 165 508 144 536 q 213 449 185 479 q 276 364 246 410 q 306 260 306 318 l 306 144 z "},"e":{"ha":322,"x_min":14,"x_max":308,"o":"m 308 310 l 308 144 q 267 31 308 71 q 161 -8 225 -8 q 56 31 97 -8 q 14 144 14 71 l 14 647 q 56 760 14 719 q 163 800 99 800 q 267 760 226 800 q 308 647 308 721 l 308 361 l 147 361 l 147 138 q 161 117 147 117 q 175 138 175 117 l 175 310 l 308 310 m 175 654 q 161 675 175 675 q 147 654 147 675 l 147 486 l 175 486 l 175 654 z "},"a":{"ha":322,"x_min":14,"x_max":308,"o":"m 147 508 l 14 508 l 14 647 q 55 760 14 721 q 160 800 96 800 q 266 760 224 800 q 308 647 308 719 l 308 0 l 175 0 l 175 100 l 172 100 q 143 19 165 47 q 83 -8 121 -8 q 31 21 47 -8 q 14 117 14 50 l 14 317 q 26 383 14 356 q 59 428 38 410 q 110 460 81 447 q 175 486 140 474 l 175 654 q 161 675 175 675 q 147 654 147 675 l 147 508 m 175 374 q 152 342 157 365 q 147 293 147 318 l 147 136 q 161 117 147 117 q 175 138 175 117 l 175 374 z "},"g":{"ha":322,"x_min":14,"x_max":308,"o":"m 308 -78 q 267 -191 308 -151 q 161 -231 225 -231 q 56 -192 97 -231 q 14 -86 14 -153 l 14 -42 l 147 -42 l 147 -85 q 161 -106 147 -106 q 175 -85 175 -106 l 175 57 l 172 57 q 141 9 161 26 q 93 -8 121 -8 q 33 28 53 -8 q 14 144 14 65 l 14 647 q 34 763 14 726 q 94 800 54 800 q 172 736 150 800 l 175 736 l 175 792 l 308 792 l 308 -78 m 147 138 q 161 117 147 117 q 175 138 175 117 l 175 654 q 161 675 175 675 q 147 654 147 675 l 147 138 z "},"n":{"ha":322,"x_min":14,"x_max":308,"o":"m 175 654 q 161 675 175 675 q 147 654 147 675 l 147 0 l 14 0 l 14 792 l 147 792 l 147 736 l 150 735 q 228 800 172 800 q 288 763 268 800 q 308 647 308 726 l 308 0 l 175 0 l 175 654 z "},"h":{"ha":322,"x_min":14,"x_max":308,"o":"m 175 654 q 161 675 175 675 q 147 654 147 675 l 147 0 l 14 0 l 14 1014 l 147 1014 l 147 736 l 150 735 q 228 800 172 800 q 288 763 268 800 q 308 647 308 726 l 308 0 l 175 0 l 175 654 z "},"m":{"ha":483,"x_min":14,"x_max":469,"o":"m 175 654 q 161 675 175 675 q 147 654 147 675 l 147 0 l 14 0 l 14 792 l 147 792 l 147 736 l 150 735 q 228 800 172 800 q 303 708 293 800 l 306 708 q 334 776 313 753 q 389 800 356 800 q 449 763 429 800 q 469 647 469 726 l 469 0 l 336 0 l 336 654 q 322 675 336 675 q 308 654 308 675 l 308 0 l 175 0 l 175 654 z "},"u":{"ha":322,"x_min":14,"x_max":308,"o":"m 147 138 q 161 117 147 117 q 175 138 175 117 l 175 792 l 308 792 l 308 0 l 175 0 l 175 56 l 172 57 q 94 -8 150 -8 q 34 28 54 -8 q 14 144 14 65 l 14 792 l 147 792 l 147 138 z "},"r":{"ha":322,"x_min":14,"x_max":308,"o":"m 175 654 q 161 675 175 675 q 147 654 147 675 l 147 0 l 14 0 l 14 792 l 147 792 l 147 736 l 150 735 q 228 800 172 800 q 288 763 268 800 q 308 647 308 726 l 308 467 l 175 467 l 175 654 z "},"i":{"ha":161,"x_min":14,"x_max":147,"o":"m 14 972 l 147 972 l 147 819 l 14 819 l 14 972 m 14 792 l 147 792 l 147 0 l 14 0 l 14 792 z "},"j":{"ha":163,"x_min":-26,"x_max":149,"o":"m 149 819 l 15 819 l 15 972 l 149 972 l 149 819 m 149 -67 q 143 -160 149 -126 q 122 -211 138 -194 q 78 -232 107 -228 q 1 -236 49 -236 l -26 -236 l -26 -117 q 10 -110 6 -117 q 15 -85 15 -104 l 15 792 l 149 792 l 149 -67 z "},"f":{"ha":217,"x_min":7,"x_max":210,"o":"m 35 672 l 7 672 l 7 792 l 35 792 l 35 838 q 40 935 35 900 q 60 988 44 971 q 104 1010 75 1006 q 182 1014 133 1014 l 210 1014 l 210 894 q 174 886 181 894 q 168 847 168 878 l 168 792 l 210 792 l 210 672 l 168 672 l 168 0 l 35 0 l 35 672 z "},"t":{"ha":224,"x_min":7,"x_max":217,"o":"m 168 944 l 168 792 l 217 792 l 217 672 l 168 672 l 168 153 q 175 126 168 133 q 217 119 182 119 l 217 0 l 182 0 q 104 3 133 0 q 60 19 75 6 q 40 63 44 33 q 35 143 35 92 l 35 672 l 7 672 l 7 792 l 35 792 l 35 944 l 168 944 z "},"v":{"ha":336,"x_min":0,"x_max":335,"o":"m 0 792 l 147 792 l 172 153 l 175 153 l 201 792 l 335 792 l 258 0 l 76 0 l 0 792 z "},"w":{"ha":547,"x_min":0,"x_max":547,"o":"m 547 792 l 485 0 l 301 0 l 279 514 l 275 639 l 272 639 l 268 514 l 246 0 l 63 0 l 0 792 l 147 792 l 158 275 l 160 153 l 163 153 l 168 275 l 203 792 l 344 792 l 379 275 l 385 153 l 388 153 l 389 276 l 400 792 l 547 792 z "},"k":{"ha":339,"x_min":14,"x_max":339,"o":"m 261 432 l 261 429 l 338 0 l 200 0 l 150 376 l 147 376 l 147 0 l 14 0 l 14 1015 l 147 1015 l 147 463 l 150 463 l 201 793 l 339 793 l 261 432 z "},"x":{"ha":328,"x_min":-4,"x_max":332,"o":"m 264 408 l 264 406 l 332 0 l 196 0 l 172 233 l 167 351 l 164 351 l 158 233 l 132 0 l -4 0 l 64 406 l 64 408 l 0 793 l 136 793 l 157 579 l 163 461 l 165 461 l 171 579 l 192 793 l 328 793 l 264 408 z "},"z":{"ha":265,"x_min":7,"x_max":258,"o":"m 258 672 l 143 119 l 257 119 l 257 0 l 7 0 l 7 100 l 122 672 l 14 672 l 14 792 l 258 792 l 258 672 z "},"y":{"ha":331,"x_min":-3,"x_max":332,"o":"m 165 364 l 171 226 l 172 226 l 178 364 l 199 790 l 332 790 l 200 -222 l 67 -222 l 97 0 l -3 790 l 144 790 l 165 364 z "},",":{"ha":194,"x_min":28,"x_max":167,"o":"m 28 167 l 167 167 l 167 0 l 138 -117 l 65 -117 l 94 0 l 28 0 l 28 167 z "},"-":{"ha":250,"x_min":28,"x_max":222,"o":"m 222 408 l 28 408 l 28 533 l 222 533 l 222 408 z "},"+":{"ha":417,"x_min":28,"x_max":389,"o":"m 389 408 l 278 408 l 278 297 l 139 297 l 139 408 l 28 408 l 28 533 l 139 533 l 139 644 l 278 644 l 278 533 l 389 533 l 389 408 z "},"*":{"ha":294,"x_min":28,"x_max":267,"o":"m 86 857 l 28 864 l 58 957 l 110 928 l 99 986 l 196 986 l 185 928 l 238 956 l 267 864 l 210 857 l 251 817 l 174 760 l 147 814 l 122 758 l 43 817 l 86 857 z "},"^":{"ha":350,"x_min":28,"x_max":322,"o":"m 176 850 l 174 850 l 147 722 l 28 722 l 96 972 l 254 972 l 322 722 l 203 722 l 176 850 z "},"˜":{"ha":276,"x_min":29,"x_max":249,"o":"m 249 947 q 237 831 249 865 q 197 797 225 797 q 169 803 183 797 q 140 817 154 810 q 114 830 126 824 q 93 836 101 836 q 74 799 74 836 l 74 797 l 29 797 l 29 800 q 42 914 29 878 q 82 950 54 950 q 108 944 94 950 q 135 932 122 939 q 161 919 149 925 q 183 914 174 914 q 206 947 206 914 l 206 950 l 249 950 l 249 947 z "},"/":{"ha":317,"x_min":28,"x_max":289,"o":"m 28 -111 l 150 1014 l 289 1014 l 167 -111 l 28 -111 z "},"\\":{"ha":317,"x_min":28,"x_max":289,"o":"m 289 -111 l 150 -111 l 28 1014 l 167 1014 l 289 -111 z "},":":{"ha":208,"x_min":28,"x_max":167,"o":"m 28 167 l 167 167 l 167 0 l 28 0 l 28 167 m 28 722 l 167 722 l 167 556 l 28 556 l 28 722 z "},"<":{"ha":347,"x_min":28,"x_max":319,"o":"m 150 472 l 150 469 l 319 421 l 319 310 l 28 408 l 28 533 l 319 632 l 319 521 l 150 472 z "},"=":{"ha":417,"x_min":28,"x_max":389,"o":"m 389 488 l 28 488 l 28 613 l 389 613 l 389 488 m 389 321 l 28 321 l 28 446 l 389 446 l 389 321 z "},">":{"ha":347,"x_min":28,"x_max":319,"o":"m 197 469 l 197 472 l 28 521 l 28 632 l 319 533 l 319 408 l 28 310 l 28 421 l 197 469 z "},"!":{"ha":222,"x_min":28,"x_max":194,"o":"m 194 972 l 194 833 l 153 222 l 69 222 l 28 833 l 28 972 l 194 972 m 42 167 l 181 167 l 181 0 l 42 0 l 42 167 z "},"?":{"ha":361,"x_min":28,"x_max":333,"o":"m 125 299 q 136 408 125 361 q 160 496 147 456 q 183 575 172 536 q 194 661 194 614 l 194 835 q 181 856 194 856 q 167 835 167 856 l 167 604 l 28 604 l 28 828 q 70 941 28 901 q 179 981 113 981 q 290 940 246 981 q 333 828 333 900 l 333 661 q 322 552 333 599 q 299 465 311 506 q 275 385 286 424 q 264 299 264 346 l 264 222 l 125 222 l 125 299 m 125 167 l 264 167 l 264 0 l 125 0 l 125 167 z "},"'":{"ha":194,"x_min":28,"x_max":167,"o":"m 167 876 l 160 722 l 35 722 l 28 876 l 28 972 l 167 972 l 167 876 z "},"\"":{"ha":361,"x_min":28,"x_max":333,"o":"m 333 876 l 326 722 l 201 722 l 194 876 l 194 972 l 333 972 l 333 876 m 167 876 l 160 722 l 35 722 l 28 876 l 28 972 l 167 972 l 167 876 z "},"#":{"ha":458,"x_min":28,"x_max":431,"o":"m 68 300 l 28 300 l 28 411 l 75 411 l 83 561 l 42 561 l 42 672 l 90 672 l 107 972 l 246 972 l 229 672 l 257 672 l 274 972 l 413 972 l 396 672 l 431 672 l 431 561 l 389 561 l 381 411 l 417 411 l 417 300 l 374 300 l 357 0 l 218 0 l 235 300 l 207 300 l 190 0 l 51 0 l 68 300 m 242 411 l 250 561 l 222 561 l 214 411 l 242 411 z "},"@":{"ha":672,"x_min":28,"x_max":644,"o":"m 482 -164 q 336 -196 414 -196 q 223 -177 278 -196 q 124 -122 168 -158 q 54 -29 81 -85 q 28 100 28 26 l 28 649 q 54 778 28 722 q 124 870 81 833 q 223 926 168 907 q 336 944 278 944 q 449 926 394 944 q 548 870 504 907 q 618 778 592 833 q 644 649 644 722 l 644 149 q 604 34 644 76 q 497 -8 564 -8 q 405 20 442 -8 q 357 99 368 49 l 354 99 q 326 20 347 49 q 274 -8 306 -8 q 212 33 235 -8 q 189 144 189 74 l 189 588 q 213 699 189 657 q 275 740 236 740 q 320 719 301 740 q 347 661 339 699 l 350 661 l 350 726 l 483 726 l 483 138 q 497 117 483 117 q 511 139 511 117 l 511 649 q 497 724 511 692 q 458 777 482 756 q 403 809 433 799 q 339 819 372 819 q 274 808 306 819 q 217 776 242 797 q 176 722 192 754 q 161 646 161 689 l 161 103 q 176 27 161 60 q 217 -27 192 -6 q 274 -60 242 -49 q 339 -71 306 -71 q 439 -43 394 -71 l 482 -164 m 350 594 q 336 615 350 615 q 322 594 322 615 l 322 138 q 336 117 322 117 q 350 138 350 117 l 350 594 z "},"$":{"ha":328,"x_min":11,"x_max":317,"o":"m 317 144 q 291 51 317 88 q 221 0 265 15 l 233 -137 l 94 -137 l 107 0 q 37 51 63 15 q 11 144 11 88 l 11 342 l 150 342 l 150 138 q 164 117 150 117 q 178 138 178 117 l 178 299 q 155 387 178 343 q 104 478 132 431 q 41 591 71 532 q 11 717 11 650 l 11 828 q 38 919 11 883 q 107 971 64 956 l 94 1110 l 233 1110 l 221 972 q 291 921 265 957 q 317 828 317 885 l 317 674 l 178 674 l 178 835 q 164 856 178 856 q 150 835 150 856 l 150 717 q 173 628 150 672 q 225 538 196 585 q 288 424 258 483 q 317 299 317 365 l 317 144 z "},"€":{"ha":375,"x_min":14,"x_max":361,"o":"m 222 835 q 208 856 222 856 q 194 835 194 856 l 194 617 l 333 617 l 319 521 l 194 521 l 194 493 l 319 493 l 306 397 l 194 397 l 194 138 q 208 117 194 117 q 222 138 222 117 l 222 356 l 361 356 l 361 144 q 318 31 361 71 q 208 -8 275 -8 q 99 31 142 -8 q 56 144 56 71 l 56 397 l 14 397 l 14 493 l 56 493 l 56 521 l 14 521 l 14 617 l 56 617 l 56 828 q 99 940 56 900 q 210 981 143 981 q 319 941 276 981 q 361 828 361 901 l 361 660 l 222 660 l 222 835 z "},"%":{"ha":803,"x_min":28,"x_max":775,"o":"m 322 568 q 281 455 322 494 q 175 415 239 415 q 69 455 111 415 q 28 568 28 494 l 28 828 q 70 940 28 900 q 176 981 113 981 q 281 941 240 981 q 322 828 322 901 l 322 568 m 540 972 l 679 972 l 263 0 l 124 0 l 540 972 m 189 835 q 175 856 189 856 q 161 835 161 856 l 161 561 q 175 540 161 540 q 189 561 189 540 l 189 835 m 775 144 q 733 31 775 71 q 628 -8 692 -8 q 522 31 564 -8 q 481 144 481 71 l 481 404 q 523 517 481 476 q 629 557 565 557 q 734 517 693 557 q 775 404 775 478 l 775 144 m 642 411 q 628 432 642 432 q 614 411 614 432 l 614 138 q 628 117 614 117 q 642 138 642 117 l 642 411 z "},"&":{"ha":361,"x_min":14,"x_max":347,"o":"m 319 682 l 319 542 l 347 542 l 347 417 l 319 417 l 319 0 l 181 0 l 181 56 l 178 57 q 147 8 167 25 q 103 -8 128 -8 q 39 31 64 -8 q 14 144 14 71 l 14 336 q 23 432 14 399 q 72 478 32 465 l 72 481 q 24 527 33 494 q 14 622 14 560 l 14 828 q 58 940 14 900 q 168 981 101 981 q 277 941 235 981 q 319 828 319 901 l 319 710 l 181 710 l 181 835 q 167 856 181 856 q 153 835 153 856 l 153 563 q 167 542 153 542 l 181 542 l 181 682 l 319 682 m 167 417 q 153 396 153 417 l 153 138 q 167 117 153 117 q 181 138 181 117 l 181 417 l 167 417 z "},"(":{"ha":221,"x_min":14,"x_max":206,"o":"m 107 -271 q 36 83 58 -79 q 14 401 14 246 q 36 717 14 554 q 107 1069 58 881 l 206 1054 q 165 701 178 858 q 153 400 153 544 q 156 254 153 328 q 165 101 158 181 q 181 -67 171 21 q 206 -256 192 -156 l 107 -271 z "},")":{"ha":221,"x_min":14,"x_max":206,"o":"m 113 1069 q 183 715 161 878 q 206 397 206 553 q 183 81 206 244 q 113 -271 161 -82 l 14 -255 q 54 97 42 -60 q 67 399 67 254 q 64 544 67 471 q 55 698 61 618 q 38 866 49 778 q 14 1054 28 954 l 113 1069 z "},"{":{"ha":340,"x_min":14,"x_max":326,"o":"m 250 594 q 244 509 250 546 q 223 447 238 472 q 183 409 208 422 q 119 396 158 396 l 119 390 q 183 377 158 390 q 223 339 208 364 q 244 277 238 314 q 250 192 250 240 l 250 -53 q 263 -127 250 -108 q 300 -146 275 -146 l 326 -146 l 326 -271 l 289 -271 q 213 -260 246 -271 q 158 -224 181 -250 q 123 -156 135 -199 q 111 -47 111 -112 l 111 235 q 94 306 111 282 q 14 331 76 331 l 14 456 q 94 480 76 456 q 111 551 111 504 l 111 832 q 123 940 111 897 q 158 1009 135 983 q 213 1045 181 1035 q 289 1056 246 1056 l 326 1056 l 326 931 l 300 931 q 263 912 275 931 q 250 838 250 893 l 250 594 z "},"|":{"ha":194,"x_min":28,"x_max":167,"o":"m 28 -257 l 28 1042 l 167 1042 l 167 -257 l 28 -257 z "},"}":{"ha":340,"x_min":14,"x_max":326,"o":"m 90 190 q 97 276 90 239 q 117 338 103 313 q 157 376 132 363 q 221 389 182 389 l 221 394 q 157 408 182 394 q 117 446 132 421 q 97 508 103 471 q 90 593 90 544 l 90 837 q 78 912 90 893 q 40 931 65 931 l 14 931 l 14 1056 l 51 1056 q 127 1045 94 1056 q 183 1009 160 1035 q 217 940 206 983 q 229 832 229 897 l 229 550 q 247 478 229 503 q 326 454 264 454 l 326 329 q 247 305 264 329 q 229 233 229 281 l 229 -47 q 217 -155 229 -112 q 183 -224 206 -199 q 127 -260 160 -250 q 51 -271 94 -271 l 14 -271 l 14 -146 l 40 -146 q 78 -127 65 -146 q 90 -53 90 -108 l 90 190 z "},"[":{"ha":250,"x_min":14,"x_max":236,"o":"m 14 -271 l 14 1056 l 236 1056 l 236 931 l 153 931 l 153 -146 l 236 -146 l 236 -271 l 14 -271 z "},"]":{"ha":250,"x_min":14,"x_max":236,"o":"m 236 1056 l 236 -271 l 14 -271 l 14 -146 l 97 -146 l 97 931 l 14 931 l 14 1056 l 236 1056 z "},"‘":{"ha":194,"x_min":28,"x_max":167,"o":"m 167 689 l 28 689 l 28 856 l 57 972 l 129 972 l 100 856 l 167 856 l 167 689 z "},"’":{"ha":194,"x_min":28,"x_max":167,"o":"m 28 972 l 167 972 l 167 806 l 137 689 l 65 689 l 94 806 l 28 806 l 28 972 z "},"“":{"ha":361,"x_min":28,"x_max":333,"o":"m 167 689 l 28 689 l 28 856 l 57 972 l 129 972 l 100 856 l 167 856 l 167 689 m 333 689 l 194 689 l 194 856 l 224 972 l 296 972 l 267 856 l 333 856 l 333 689 z "},"”":{"ha":361,"x_min":28,"x_max":333,"o":"m 194 972 l 333 972 l 333 806 l 304 689 l 232 689 l 261 806 l 194 806 l 194 972 m 28 972 l 167 972 l 167 806 l 138 689 l 65 689 l 94 806 l 28 806 l 28 972 z "},"‚":{"ha":194,"x_min":28,"x_max":167,"o":"m 28 167 l 167 167 l 167 0 l 138 -117 l 65 -117 l 94 0 l 28 0 l 28 167 z "},"„":{"ha":361,"x_min":28,"x_max":333,"o":"m 28 167 l 167 167 l 167 0 l 138 -117 l 65 -117 l 94 0 l 28 0 l 28 167 m 194 167 l 333 167 l 333 0 l 304 -117 l 232 -117 l 261 0 l 194 0 l 194 167 z "},"•":{"ha":224,"x_min":29,"x_max":196,"o":"m 29 504 q 53 563 29 539 q 113 588 78 588 q 172 563 147 588 q 196 504 196 539 q 172 445 196 469 q 113 421 147 421 q 53 445 78 421 q 29 504 29 469 z "},"_":{"ha":375,"x_min":28,"x_max":347,"o":"m 347 -125 l 28 -125 l 28 0 l 347 0 l 347 -125 z "},"–":{"ha":639,"x_min":28,"x_max":611,"o":"m 611 408 l 28 408 l 28 533 l 611 533 l 611 408 z "},"—":{"ha":972,"x_min":28,"x_max":944,"o":"m 944 408 l 28 408 l 28 533 l 944 533 l 944 408 z "},"¯":{"ha":250,"x_min":28,"x_max":222,"o":"m 222 814 l 28 814 l 28 939 l 222 939 l 222 814 z "},"¬":{"ha":492,"x_min":28,"x_max":464,"o":"m 28 972 l 464 972 l 464 0 l 28 0 l 28 972 m 246 586 l 351 889 l 138 889 l 246 586 m 381 207 l 381 774 l 281 488 l 381 207 m 111 199 l 211 488 l 111 769 l 111 199 m 140 83 l 356 83 l 247 389 l 140 83 z "},"™":{"ha":431,"x_min":28,"x_max":403,"o":"m 158 921 l 124 921 l 124 681 l 63 681 l 63 921 l 28 921 l 28 972 l 158 972 l 158 921 m 401 681 l 343 681 l 347 918 l 344 918 l 342 868 l 326 681 l 249 681 l 231 918 l 229 918 l 228 868 l 231 681 l 172 681 l 172 972 l 279 972 l 285 806 l 288 760 l 289 760 l 292 806 l 296 972 l 403 972 l 401 681 z "},"®":{"ha":710,"x_min":28,"x_max":682,"o":"m 28 650 q 56 794 28 732 q 131 897 85 856 q 235 958 176 938 q 356 979 294 979 q 475 958 417 979 q 579 897 533 938 q 653 794 625 856 q 682 650 682 732 l 682 321 q 653 177 682 239 q 579 74 625 115 q 475 13 533 33 q 356 -8 417 -8 q 235 13 294 -8 q 131 74 176 33 q 56 177 85 115 q 28 321 28 239 l 28 650 m 146 321 q 164 225 146 267 q 211 156 182 183 q 278 115 240 129 q 354 101 315 101 q 445 121 401 101 q 519 181 489 140 l 381 181 q 371 233 374 208 q 368 306 368 258 l 368 410 q 354 431 368 431 l 340 431 l 340 181 l 201 181 l 201 792 l 356 792 q 471 758 435 792 q 507 653 507 724 l 507 622 q 504 563 507 585 q 495 527 501 540 q 478 507 489 514 q 449 494 467 500 l 449 492 q 478 477 467 486 q 495 452 489 468 q 504 411 501 436 q 507 350 507 386 l 507 308 q 508 267 507 283 q 510 237 508 250 q 515 212 513 224 q 524 185 518 200 q 553 245 543 211 q 564 321 564 279 l 564 650 q 546 746 564 704 q 499 815 528 788 q 432 856 469 842 q 356 869 394 869 q 278 856 317 869 q 211 815 240 842 q 164 746 182 788 q 146 650 146 704 l 146 321 m 368 646 q 354 667 368 667 l 340 667 l 340 556 l 354 556 q 368 576 368 556 l 368 646 z "},"©":{"ha":710,"x_min":28,"x_max":682,"o":"m 28 650 q 56 794 28 732 q 131 897 85 856 q 235 958 176 938 q 356 979 294 979 q 476 958 417 979 q 581 897 535 938 q 654 794 626 856 q 682 650 682 732 l 682 322 q 654 177 682 239 q 581 74 626 115 q 476 13 535 33 q 356 -8 417 -8 q 235 13 294 -8 q 131 74 176 33 q 56 177 85 115 q 28 322 28 239 l 28 650 m 146 322 q 164 226 146 267 q 212 157 182 185 q 279 115 242 129 q 356 101 317 101 q 432 115 394 101 q 499 157 469 129 q 546 226 528 185 q 564 322 564 267 l 564 650 q 546 747 564 706 q 499 815 528 788 q 432 856 469 842 q 356 869 394 869 q 279 856 317 869 q 212 815 242 842 q 164 747 182 788 q 146 650 146 706 l 146 322 m 369 674 q 356 694 369 694 q 342 674 342 694 l 342 299 q 356 278 342 278 q 369 299 369 278 l 369 444 l 508 444 l 508 306 q 465 192 508 232 q 356 153 422 153 q 246 192 289 153 q 203 306 203 232 l 203 667 q 247 779 203 739 q 357 819 290 819 q 466 780 424 819 q 508 667 508 740 l 508 554 l 369 554 l 369 674 z "},"¤":{"ha":492,"x_min":28,"x_max":464,"o":"m 28 972 l 464 972 l 464 0 l 28 0 l 28 972 m 246 586 l 351 889 l 138 889 l 246 586 m 381 207 l 381 774 l 281 488 l 381 207 m 111 199 l 211 488 l 111 769 l 111 199 m 140 83 l 356 83 l 247 389 l 140 83 z "},"¢":{"ha":322,"x_min":14,"x_max":308,"o":"m 175 654 q 161 675 175 675 q 147 654 147 675 l 147 138 q 161 117 147 117 q 175 138 175 117 l 175 338 l 308 338 l 308 144 q 283 53 308 89 q 218 1 258 17 l 231 -137 l 92 -137 l 104 1 q 39 53 64 17 q 14 144 14 89 l 14 647 q 39 738 14 701 q 104 790 64 775 l 92 929 l 231 929 l 218 790 q 283 739 258 775 q 308 647 308 703 l 308 490 l 175 490 l 175 654 z "},"£":{"ha":375,"x_min":14,"x_max":361,"o":"m 222 835 q 208 856 222 856 q 194 835 194 856 l 194 449 l 333 449 l 333 324 l 194 324 l 194 265 q 171 125 194 178 l 361 125 l 361 0 l 14 0 l 14 124 q 48 185 40 156 q 56 260 56 215 l 56 324 l 14 324 l 14 449 l 56 449 l 56 829 q 99 940 56 900 q 210 981 143 981 q 319 941 276 981 q 361 828 361 901 l 361 604 l 222 604 l 222 835 z "},"¥":{"ha":339,"x_min":0,"x_max":340,"o":"m 256 425 l 326 425 l 326 300 l 239 300 l 239 272 l 326 272 l 326 147 l 239 147 l 239 0 l 100 0 l 100 147 l 13 147 l 13 272 l 100 272 l 100 300 l 13 300 l 13 425 l 83 425 l 0 972 l 142 972 l 163 638 l 168 499 l 171 499 l 176 638 l 197 972 l 340 972 l 256 425 z "},"ƒ":{"ha":238,"x_min":14,"x_max":231,"o":"m 14 -172 q 49 -164 43 -172 q 56 -125 56 -156 l 56 672 l 28 672 l 28 792 l 56 792 l 56 838 q 60 935 56 900 q 81 988 65 971 q 125 1010 96 1006 q 203 1014 154 1014 l 231 1014 l 231 894 q 195 886 201 894 q 189 847 189 878 l 189 792 l 231 792 l 231 672 l 189 672 l 189 -115 q 184 -213 189 -178 q 164 -266 179 -249 q 119 -287 149 -283 q 42 -292 90 -292 l 14 -292 l 14 -172 z "},"−":{"ha":417,"x_min":28,"x_max":389,"o":"m 389 408 l 28 408 l 28 533 l 389 533 l 389 408 z "},"±":{"ha":417,"x_min":28,"x_max":389,"o":"m 389 478 l 278 478 l 278 367 l 139 367 l 139 478 l 28 478 l 28 603 l 139 603 l 139 714 l 278 714 l 278 603 l 389 603 l 389 478 m 389 186 l 28 186 l 28 311 l 389 311 l 389 186 z "},"×":{"ha":439,"x_min":28,"x_max":411,"o":"m 322 279 l 219 383 l 121 285 l 33 374 l 131 471 l 28 575 l 117 663 l 219 560 l 318 657 l 406 569 l 308 471 l 411 368 l 322 279 z "},"÷":{"ha":490,"x_min":28,"x_max":463,"o":"m 461 408 l 28 408 l 28 533 l 461 533 l 461 408 m 183 713 l 308 713 l 308 563 l 183 563 l 183 713 m 183 381 l 308 381 l 308 231 l 183 231 l 183 381 z "},"¦":{"ha":194,"x_min":28,"x_max":167,"o":"m 28 476 l 28 1042 l 167 1042 l 167 476 l 28 476 m 28 -257 l 28 310 l 167 310 l 167 -257 l 28 -257 z "},"…":{"ha":586,"x_min":28,"x_max":558,"o":"m 28 167 l 167 167 l 167 0 l 28 0 l 28 167 m 222 167 l 361 167 l 361 0 l 222 0 l 222 167 m 419 167 l 558 167 l 558 0 l 419 0 l 419 167 z "},"·":{"ha":194,"x_min":28,"x_max":167,"o":"m 28 542 l 167 542 l 167 375 l 28 375 l 28 542 z "},"¡":{"ha":222,"x_min":28,"x_max":194,"o":"m 181 792 l 181 625 l 42 625 l 42 792 l 181 792 m 28 -42 l 69 569 l 153 569 l 194 -42 l 194 -181 l 28 -181 l 28 -42 z "},"¿":{"ha":361,"x_min":28,"x_max":333,"o":"m 236 625 l 97 625 l 97 792 l 236 792 l 236 625 m 236 493 q 225 384 236 431 q 201 297 214 338 q 178 217 189 256 q 167 131 167 178 l 167 -43 q 181 -64 167 -64 q 194 -43 194 -64 l 194 188 l 333 188 l 333 -36 q 291 -149 333 -110 q 182 -189 249 -189 q 72 -149 115 -189 q 28 -36 28 -108 l 28 131 q 39 240 28 193 q 63 328 50 288 q 86 407 75 368 q 97 493 97 446 l 97 569 l 236 569 l 236 493 z "},"°":{"ha":264,"x_min":28,"x_max":236,"o":"m 28 876 q 58 951 28 921 q 132 981 88 981 q 206 951 175 981 q 236 876 236 921 q 206 803 236 833 q 132 772 175 772 q 58 803 88 772 q 28 876 28 833 m 90 876 q 102 847 90 860 q 132 835 114 835 q 161 847 149 835 q 174 876 174 860 q 161 906 174 894 q 132 918 149 918 q 102 906 114 918 q 90 876 90 894 z "},"ª":{"ha":264,"x_min":29,"x_max":235,"o":"m 122 778 l 29 778 l 29 874 q 58 953 29 925 q 131 981 86 981 q 205 952 175 981 q 235 874 235 924 l 235 419 l 142 419 l 142 489 l 139 489 q 78 413 131 413 q 40 433 51 413 q 29 500 29 454 l 29 643 q 38 690 29 671 q 60 722 46 708 q 96 744 75 735 q 142 761 117 753 l 142 878 q 132 893 142 893 q 122 878 122 893 l 122 778 m 142 683 q 126 661 129 678 q 122 626 122 644 l 122 514 q 132 500 122 500 q 142 514 142 500 l 142 683 z "},"º":{"ha":264,"x_min":28,"x_max":236,"o":"m 236 515 q 206 435 236 464 q 132 407 176 407 q 58 435 88 407 q 28 515 28 464 l 28 874 q 58 952 28 924 q 133 981 89 981 q 207 953 178 981 q 236 874 236 925 l 236 515 m 142 878 q 132 893 142 893 q 122 878 122 893 l 122 511 q 132 496 122 496 q 142 511 142 496 l 142 878 z "},"¹":{"ha":214,"x_min":28,"x_max":186,"o":"m 154 510 l 186 510 l 186 422 l 28 422 l 28 510 l 60 510 l 60 847 l 28 847 l 28 928 q 70 937 57 928 q 83 972 83 946 l 154 972 l 154 510 z "},"²":{"ha":264,"x_min":28,"x_max":236,"o":"m 28 510 q 48 591 28 549 q 92 674 68 633 q 126 738 111 708 q 142 792 142 768 l 142 899 q 132 910 142 910 q 122 897 122 910 l 122 768 l 28 768 l 28 879 q 57 956 28 932 q 131 981 86 981 q 206 957 176 981 q 236 883 236 933 l 236 793 q 217 717 236 758 q 174 635 197 675 q 138 567 154 600 q 122 514 122 533 l 122 510 l 236 510 l 236 422 l 28 422 l 28 510 z "},"³":{"ha":267,"x_min":28,"x_max":238,"o":"m 124 789 l 28 789 l 28 878 q 58 953 28 926 q 132 981 88 981 q 207 953 176 981 q 238 878 238 926 l 238 793 q 231 742 238 760 q 197 718 225 725 l 197 717 q 231 692 225 710 q 238 640 238 674 l 238 511 q 207 435 238 463 q 132 408 176 408 q 58 435 88 408 q 28 511 28 463 l 28 621 l 124 621 l 124 493 q 133 481 124 481 q 142 493 142 481 l 142 653 q 136 676 142 672 q 104 681 131 681 l 94 681 l 94 753 l 104 753 q 136 758 131 753 q 142 781 142 763 l 142 896 q 133 908 142 908 q 124 896 124 908 l 124 789 z "},"⁴":{"ha":285,"x_min":28,"x_max":256,"o":"m 28 558 l 89 972 l 236 972 l 236 572 l 256 572 l 256 485 l 236 485 l 236 421 l 140 421 l 140 485 l 28 485 l 28 558 m 140 572 l 154 893 l 153 893 l 110 572 l 140 572 z "},"⁄":{"ha":360,"x_min":28,"x_max":332,"o":"m 28 0 l 219 972 l 332 972 l 140 0 l 28 0 z "},"¼":{"ha":613,"x_min":28,"x_max":583,"o":"m 154 510 l 186 510 l 186 422 l 28 422 l 28 510 l 60 510 l 60 847 l 28 847 l 28 928 q 70 937 57 928 q 83 972 83 946 l 154 972 l 154 510 m 139 0 l 331 972 l 443 972 l 251 0 l 139 0 m 356 138 l 417 551 l 564 551 l 564 151 l 583 151 l 583 64 l 564 64 l 564 0 l 468 0 l 468 64 l 356 64 l 356 138 m 468 151 l 482 472 l 481 472 l 438 151 l 468 151 z "},"½":{"ha":633,"x_min":28,"x_max":606,"o":"m 139 0 l 331 972 l 443 972 l 251 0 l 139 0 m 397 88 q 417 169 397 126 q 461 251 438 211 q 496 316 481 286 q 511 369 511 346 l 511 476 q 501 488 511 488 q 492 475 492 488 l 492 346 l 397 346 l 397 457 q 426 534 397 510 q 500 558 456 558 q 576 535 546 558 q 606 461 606 511 l 606 371 q 586 294 606 336 q 543 213 567 253 q 508 144 524 178 q 492 92 492 111 l 492 88 l 606 88 l 606 0 l 397 0 l 397 88 m 154 510 l 186 510 l 186 422 l 28 422 l 28 510 l 60 510 l 60 847 l 28 847 l 28 928 q 70 937 57 928 q 83 972 83 946 l 154 972 l 154 510 z "},"¾":{"ha":654,"x_min":28,"x_max":625,"o":"m 181 0 l 372 972 l 485 972 l 293 0 l 181 0 m 397 121 l 458 535 l 606 535 l 606 135 l 625 135 l 625 47 l 606 47 l 606 -17 l 510 -17 l 510 47 l 397 47 l 397 121 m 510 135 l 524 456 l 522 456 l 479 135 l 510 135 m 124 789 l 28 789 l 28 878 q 58 953 28 926 q 132 981 88 981 q 207 953 176 981 q 238 878 238 926 l 238 793 q 231 742 238 760 q 197 718 225 725 l 197 717 q 231 692 225 710 q 238 640 238 674 l 238 511 q 207 435 238 463 q 132 408 176 408 q 58 435 88 408 q 28 511 28 463 l 28 621 l 124 621 l 124 493 q 133 481 124 481 q 142 493 142 481 l 142 653 q 136 676 142 672 q 104 681 131 681 l 94 681 l 94 753 l 104 753 q 136 758 131 753 q 142 781 142 763 l 142 896 q 133 908 142 908 q 124 896 124 908 l 124 789 z "},"‰":{"ha":1125,"x_min":28,"x_max":1097,"o":"m 322 568 q 281 455 322 494 q 175 415 239 415 q 69 455 111 415 q 28 568 28 494 l 28 828 q 70 940 28 900 q 176 981 113 981 q 281 941 240 981 q 322 828 322 901 l 322 568 m 540 972 l 679 972 l 263 0 l 124 0 l 540 972 m 189 835 q 175 856 189 856 q 161 835 161 856 l 161 561 q 175 540 161 540 q 189 561 189 540 l 189 835 m 775 144 q 733 31 775 71 q 628 -8 692 -8 q 522 31 564 -8 q 481 144 481 71 l 481 404 q 523 517 481 476 q 629 557 565 557 q 734 517 693 557 q 775 404 775 478 l 775 144 m 1097 144 q 1056 31 1097 71 q 950 -8 1014 -8 q 844 31 886 -8 q 803 144 803 71 l 803 404 q 845 517 803 476 q 951 557 888 557 q 1056 517 1015 557 q 1097 404 1097 478 l 1097 144 m 642 411 q 628 432 642 432 q 614 411 614 432 l 614 138 q 628 117 614 117 q 642 138 642 117 l 642 411 m 964 411 q 950 432 964 432 q 936 411 936 432 l 936 138 q 950 117 936 117 q 964 138 964 117 l 964 411 z "},"μ":{"ha":492,"x_min":28,"x_max":464,"o":"m 28 972 l 464 972 l 464 0 l 28 0 l 28 972 m 246 586 l 351 889 l 138 889 l 246 586 m 381 207 l 381 774 l 281 488 l 381 207 m 111 199 l 211 488 l 111 769 l 111 199 m 140 83 l 356 83 l 247 389 l 140 83 z "},"¶":{"ha":486,"x_min":28,"x_max":458,"o":"m 319 -83 l 319 972 l 458 972 l 458 -83 l 319 -83 m 153 -83 l 153 463 q 97 476 121 463 q 58 519 74 489 q 35 597 43 549 q 28 718 28 646 q 38 839 28 790 q 65 917 47 888 q 110 960 83 947 q 171 972 136 972 l 292 972 l 292 -83 l 153 -83 z "},"§":{"ha":350,"x_min":28,"x_max":322,"o":"m 322 319 q 296 224 322 264 q 322 128 322 179 l 322 13 q 281 -101 322 -61 q 175 -140 239 -140 q 69 -101 111 -140 q 28 13 28 -61 l 28 147 l 161 147 l 161 6 q 175 -15 161 -15 q 189 6 189 -15 l 189 128 q 169 186 189 157 q 122 247 149 215 q 58 331 89 286 q 28 436 28 376 l 28 521 q 38 583 28 556 q 67 629 49 610 q 39 685 50 656 q 28 749 28 714 l 28 828 q 70 940 28 900 q 176 981 113 981 q 281 941 240 981 q 322 828 322 901 l 322 731 l 189 731 l 189 835 q 175 856 189 856 q 161 835 161 856 l 161 749 q 181 688 161 717 q 229 629 201 660 q 292 544 263 590 q 322 440 322 499 l 322 319 m 189 440 q 181 475 189 458 q 161 510 174 492 l 161 436 q 169 401 161 418 q 189 365 176 383 l 189 440 z "},"†":{"ha":389,"x_min":28,"x_max":361,"o":"m 264 972 l 264 792 l 361 792 l 361 667 l 264 667 l 264 0 l 125 0 l 125 667 l 28 667 l 28 792 l 125 792 l 125 972 l 264 972 z "},"‡":{"ha":389,"x_min":28,"x_max":361,"o":"m 28 792 l 125 792 l 125 972 l 264 972 l 264 792 l 361 792 l 361 667 l 264 667 l 264 306 l 361 306 l 361 181 l 264 181 l 264 0 l 125 0 l 125 181 l 28 181 l 28 306 l 125 306 l 125 667 l 28 667 l 28 792 z "},"~":{"ha":344,"x_min":28,"x_max":317,"o":"m 317 567 q 299 451 317 486 q 240 415 281 415 q 206 421 222 415 q 173 433 189 426 q 142 444 157 439 q 114 450 128 450 q 86 418 86 450 l 86 415 l 28 415 l 28 418 q 108 571 28 571 q 142 565 125 571 q 175 553 158 560 q 207 542 192 547 q 235 536 222 536 q 261 567 261 536 l 261 571 l 317 571 l 317 567 z "},"‹":{"ha":208,"x_min":28,"x_max":181,"o":"m 83 565 l 181 565 l 125 399 l 181 232 l 83 232 l 28 399 l 83 565 z "},"›":{"ha":208,"x_min":28,"x_max":181,"o":"m 125 232 l 28 232 l 83 399 l 28 565 l 125 565 l 181 399 l 125 232 z "},"«":{"ha":333,"x_min":28,"x_max":306,"o":"m 83 565 l 181 565 l 125 399 l 181 232 l 83 232 l 28 399 l 83 565 m 208 565 l 306 565 l 250 399 l 306 232 l 208 232 l 153 399 l 208 565 z "},"»":{"ha":333,"x_min":28,"x_max":306,"o":"m 250 232 l 153 232 l 208 399 l 153 565 l 250 565 l 306 399 l 250 232 m 125 232 l 28 232 l 83 399 l 28 565 l 125 565 l 181 399 l 125 232 z "},"˘":{"ha":300,"x_min":28,"x_max":272,"o":"m 125 958 q 150 907 125 907 q 175 958 175 907 l 272 958 q 242 833 272 869 q 150 796 211 796 q 59 833 90 796 q 28 958 28 869 l 125 958 z "},"˙":{"ha":167,"x_min":28,"x_max":139,"o":"m 28 947 l 139 947 l 139 808 l 28 808 l 28 947 z "},"˚":{"ha":250,"x_min":28,"x_max":221,"o":"m 28 878 q 125 972 28 972 q 196 948 171 972 q 221 876 221 924 q 125 782 221 782 q 28 878 28 782 m 96 876 q 125 849 96 849 q 153 876 153 849 q 125 906 153 906 q 96 876 96 906 z "},"˛":{"ha":213,"x_min":29,"x_max":185,"o":"m 185 -14 q 137 -28 158 -14 q 115 -58 115 -42 q 130 -77 115 -72 q 161 -82 144 -82 q 185 -79 171 -82 l 185 -190 q 138 -194 160 -194 q 56 -170 83 -194 q 29 -114 29 -146 q 39 -75 29 -94 q 68 -40 49 -56 q 117 -15 88 -25 q 185 -6 146 -6 l 185 -14 z "},"ˆ":{"ha":264,"x_min":28,"x_max":236,"o":"m 28 790 l 67 965 l 197 965 l 236 790 l 147 790 l 133 882 l 131 882 l 117 790 l 28 790 z "},"ˇ":{"ha":306,"x_min":69,"x_max":278,"o":"m 278 965 l 239 790 l 108 790 l 69 965 l 158 965 l 172 874 l 175 874 l 189 965 l 278 965 z "},"ı":{"ha":161,"x_min":14,"x_max":147,"o":"m 14 792 l 147 792 l 147 0 l 14 0 l 14 792 z "},"´":{"ha":185,"x_min":28,"x_max":157,"o":"m 28 790 l 46 965 l 157 965 l 117 790 l 28 790 z "},"`":{"ha":185,"x_min":28,"x_max":157,"o":"m 28 965 l 139 965 l 157 790 l 68 790 l 28 965 z "},"¨":{"ha":251,"x_min":28,"x_max":224,"o":"m 28 947 l 111 947 l 111 808 l 28 808 l 28 947 m 140 947 l 224 947 l 224 808 l 140 808 l 140 947 z "},"¸":{"ha":253,"x_min":28,"x_max":225,"o":"m 138 6 l 126 -29 q 197 -52 168 -29 q 225 -110 225 -75 q 188 -172 225 -149 q 89 -196 150 -196 q 60 -194 75 -196 q 28 -189 44 -192 l 28 -106 q 53 -110 42 -108 q 75 -112 64 -112 q 125 -89 125 -112 q 106 -68 125 -75 q 58 -61 88 -61 l 72 6 l 138 6 z "},"ﬁ":{"ha":378,"x_min":7,"x_max":364,"o":"m 35 672 l 7 672 l 7 792 l 35 792 l 35 838 q 40 935 35 900 q 60 988 44 971 q 104 1010 75 1006 q 182 1014 133 1014 l 210 1014 l 210 894 q 174 886 181 894 q 168 847 168 878 l 168 792 l 210 792 l 210 672 l 168 672 l 168 0 l 35 0 l 35 672 m 231 972 l 364 972 l 364 819 l 231 819 l 231 972 m 231 792 l 364 792 l 364 0 l 231 0 l 231 792 z "},"ﬂ":{"ha":378,"x_min":7,"x_max":364,"o":"m 35 672 l 7 672 l 7 792 l 35 792 l 35 838 q 40 935 35 900 q 60 988 44 971 q 104 1010 75 1006 q 182 1014 133 1014 l 210 1014 l 210 894 q 174 886 181 894 q 168 847 168 878 l 168 792 l 210 792 l 210 672 l 168 672 l 168 0 l 35 0 l 35 672 m 231 1014 l 364 1014 l 364 0 l 231 0 l 231 1014 z "},"Þ":{"ha":333,"x_min":14,"x_max":319,"o":"m 319 340 q 282 234 319 267 q 167 201 244 201 l 153 201 l 153 0 l 14 0 l 14 972 l 153 972 l 153 771 l 168 771 q 282 738 244 771 q 319 632 319 706 l 319 340 m 181 625 q 167 646 181 646 l 153 646 l 153 326 l 167 326 q 181 347 181 326 l 181 625 z "},"þ":{"ha":322,"x_min":14,"x_max":308,"o":"m 147 1014 l 147 736 l 150 736 q 228 800 172 800 q 288 763 268 800 q 308 647 308 726 l 308 144 q 289 28 308 65 q 229 -8 269 -8 q 181 9 201 -8 q 150 57 161 26 l 147 57 l 147 -222 l 14 -222 l 14 1014 l 147 1014 m 175 654 q 161 675 175 675 q 147 654 147 675 l 147 138 q 161 117 147 117 q 175 138 175 117 l 175 654 z "},"ß":{"ha":331,"x_min":14,"x_max":319,"o":"m 181 835 q 167 856 181 856 l 165 856 q 153 835 153 856 l 153 0 l 14 0 l 14 842 q 51 948 14 915 q 165 981 89 981 l 168 981 q 282 948 244 981 q 319 842 319 915 l 319 664 q 318 610 319 633 q 310 569 317 586 q 292 540 304 551 q 261 522 281 529 l 261 519 q 310 474 301 507 q 319 378 319 440 l 319 139 q 282 33 319 65 q 167 0 244 0 l 164 0 l 164 125 l 167 125 q 181 146 181 125 l 181 438 q 167 458 181 458 l 164 458 l 164 583 l 167 583 q 181 604 181 583 l 181 835 z "},"ð":{"ha":322,"x_min":14,"x_max":308,"o":"m 32 1042 q 183 983 126 1028 l 239 1021 l 278 963 l 235 933 q 273 863 258 901 q 295 780 288 824 q 306 688 303 736 q 308 589 308 640 l 308 144 q 267 31 308 71 q 161 -8 225 -8 q 56 31 97 -8 q 14 144 14 71 l 14 647 q 41 760 14 719 q 107 800 68 800 q 168 754 147 800 l 171 756 q 159 817 167 788 q 140 871 151 846 l 97 843 l 57 900 l 104 931 q 14 989 68 971 l 32 1042 m 175 654 q 161 675 175 675 q 147 654 147 675 l 147 138 q 161 117 147 117 q 175 138 175 117 l 175 654 z "},"Æ":{"ha":403,"x_min":0,"x_max":396,"o":"m 382 847 l 333 847 l 333 561 l 389 561 l 389 436 l 333 436 l 333 125 l 396 125 l 396 0 l 194 0 l 194 232 l 156 232 l 139 0 l 0 0 l 103 972 l 382 972 l 382 847 m 194 357 l 194 819 l 192 819 l 188 651 l 165 357 l 194 357 z "},"Œ":{"ha":389,"x_min":14,"x_max":382,"o":"m 368 847 l 319 847 l 319 561 l 375 561 l 375 436 l 319 436 l 319 125 l 382 125 l 382 0 l 167 0 q 57 40 100 0 q 14 153 14 79 l 14 819 q 58 932 14 892 q 168 972 101 972 l 368 972 l 368 847 m 167 847 q 153 826 153 847 l 153 146 q 167 125 153 125 l 181 125 l 181 847 l 167 847 z "},"æ":{"ha":483,"x_min":14,"x_max":469,"o":"m 178 100 q 147 20 171 49 q 83 -8 122 -8 q 31 21 47 -8 q 14 117 14 50 l 14 310 q 22 367 14 342 q 49 412 31 392 q 99 448 68 432 q 175 478 129 464 l 175 654 q 161 675 175 675 q 147 654 147 675 l 147 508 l 14 508 l 14 647 q 52 759 14 718 q 153 800 90 800 q 240 764 207 800 l 243 764 q 331 800 276 800 q 431 759 393 800 q 469 647 469 718 l 469 361 l 308 361 l 308 138 q 322 117 308 117 q 336 138 336 117 l 336 310 l 469 310 l 469 144 q 429 33 469 74 q 322 -8 389 -8 q 229 20 267 -8 q 181 100 192 49 l 178 100 m 336 654 q 322 675 336 675 q 308 654 308 675 l 308 486 l 336 486 l 336 654 m 175 367 q 147 286 147 354 l 147 136 q 161 117 147 117 q 175 138 175 117 l 175 367 z "},"œ":{"ha":483,"x_min":14,"x_max":469,"o":"m 469 310 l 469 144 q 431 33 469 74 q 329 -8 392 -8 q 243 26 275 -8 l 240 26 q 154 -8 208 -8 q 53 33 92 -8 q 14 144 14 74 l 14 647 q 53 758 14 715 q 157 800 93 800 q 242 765 208 800 l 244 765 q 331 800 278 800 q 431 758 393 800 q 469 647 469 717 l 469 361 l 308 361 l 308 138 q 322 117 308 117 q 336 138 336 117 l 336 310 l 469 310 m 175 654 q 161 675 175 675 q 147 654 147 675 l 147 138 q 161 117 147 117 q 175 138 175 117 l 175 654 m 336 654 q 322 675 336 675 q 308 654 308 675 l 308 486 l 336 486 l 336 654 z "},"Ø":{"ha":333,"x_min":14,"x_max":319,"o":"m 319 144 q 276 31 319 71 q 167 -8 233 -8 q 71 21 108 -8 l 63 -8 l 14 6 l 31 68 q 14 144 14 101 l 14 828 q 58 940 14 900 q 168 981 101 981 q 263 953 224 981 l 269 981 l 319 967 l 303 904 q 319 828 319 874 l 319 144 m 181 835 q 167 856 181 856 q 153 835 153 856 l 153 536 l 181 642 l 181 835 m 153 138 q 167 117 153 117 q 181 138 181 117 l 181 440 l 153 335 l 153 138 z "},"ø":{"ha":322,"x_min":14,"x_max":308,"o":"m 308 144 q 267 31 308 71 q 161 -8 225 -8 q 71 18 111 -8 l 63 -8 l 14 6 l 32 64 q 14 144 14 100 l 14 647 q 56 760 14 719 q 163 800 99 800 q 250 774 215 800 l 258 800 l 308 786 l 290 728 q 308 647 308 692 l 308 144 m 175 654 q 161 675 175 675 q 147 654 147 675 l 147 439 l 175 529 l 175 654 m 147 138 q 161 117 147 117 q 175 138 175 117 l 175 356 l 147 265 l 147 138 z "},"À":{"ha":347,"x_min":0,"x_max":347,"o":"m 347 0 l 194 0 l 186 232 l 147 232 l 139 0 l 0 0 l 76 972 l 271 972 l 347 0 m 182 357 l 172 651 l 168 819 l 165 819 l 161 651 l 151 357 l 182 357 m 86 1183 l 197 1183 l 215 1008 l 126 1008 l 86 1183 z "},"Á":{"ha":347,"x_min":0,"x_max":347,"o":"m 347 0 l 194 0 l 186 232 l 147 232 l 139 0 l 0 0 l 76 972 l 271 972 l 347 0 m 182 357 l 172 651 l 168 819 l 165 819 l 161 651 l 151 357 l 182 357 m 132 1008 l 150 1183 l 261 1183 l 221 1008 l 132 1008 z "},"Â":{"ha":347,"x_min":0,"x_max":347,"o":"m 347 0 l 194 0 l 186 232 l 147 232 l 139 0 l 0 0 l 76 972 l 271 972 l 347 0 m 182 357 l 172 651 l 168 819 l 165 819 l 161 651 l 151 357 l 182 357 m 69 1008 l 108 1183 l 239 1183 l 278 1008 l 189 1008 l 175 1100 l 172 1100 l 158 1008 l 69 1008 z "},"Ã":{"ha":347,"x_min":0,"x_max":347,"o":"m 347 0 l 194 0 l 186 232 l 147 232 l 139 0 l 0 0 l 76 972 l 271 972 l 347 0 m 182 357 l 172 651 l 168 819 l 165 819 l 161 651 l 151 357 l 182 357 m 285 1165 q 273 1049 285 1083 q 233 1015 261 1015 q 205 1022 219 1015 q 176 1035 190 1028 q 150 1048 163 1042 q 129 1054 138 1054 q 110 1017 110 1054 l 110 1015 l 65 1015 l 65 1018 q 78 1132 65 1096 q 118 1168 90 1168 q 144 1163 131 1168 q 172 1150 158 1157 q 197 1138 185 1143 q 219 1132 210 1132 q 242 1165 242 1132 l 242 1168 l 285 1168 l 285 1165 z "},"Ä":{"ha":347,"x_min":0,"x_max":347,"o":"m 347 0 l 194 0 l 186 232 l 147 232 l 139 0 l 0 0 l 76 972 l 271 972 l 347 0 m 182 357 l 172 651 l 168 819 l 165 819 l 161 651 l 151 357 l 182 357 m 76 1165 l 160 1165 l 160 1026 l 76 1026 l 76 1165 m 189 1165 l 272 1165 l 272 1026 l 189 1026 l 189 1165 z "},"Å":{"ha":347,"x_min":0,"x_max":347,"o":"m 347 0 l 194 0 l 186 232 l 147 232 l 139 0 l 0 0 l 76 972 l 271 972 l 347 0 m 182 357 l 172 651 l 168 819 l 165 819 l 161 651 l 151 357 l 182 357 m 76 1096 q 174 1190 76 1190 q 244 1166 219 1190 q 269 1094 269 1142 q 174 1000 269 1000 q 76 1096 76 1000 m 144 1094 q 174 1067 144 1067 q 201 1094 201 1067 q 174 1124 201 1124 q 144 1094 144 1124 z "},"Ç":{"ha":333,"x_min":14,"x_max":319,"o":"m 181 835 q 167 856 181 856 q 153 835 153 856 l 153 138 q 167 117 153 117 q 181 138 181 117 l 181 411 l 319 411 l 319 144 q 276 31 319 71 q 167 -8 233 -8 q 57 31 100 -8 q 14 144 14 71 l 14 828 q 58 940 14 900 q 168 981 101 981 q 277 941 235 981 q 319 828 319 901 l 319 604 l 181 604 l 181 835 m 207 6 l 196 -29 q 266 -52 238 -29 q 294 -110 294 -75 q 257 -172 294 -149 q 158 -196 219 -196 q 129 -194 144 -196 q 97 -189 114 -192 l 97 -106 q 122 -110 111 -108 q 144 -112 133 -112 q 194 -89 194 -112 q 176 -68 194 -75 q 128 -61 157 -61 l 142 6 l 207 6 z "},"Ð":{"ha":333,"x_min":0,"x_max":319,"o":"m 319 139 q 282 33 319 65 q 167 0 244 0 l 14 0 l 14 972 l 168 972 q 282 940 244 972 q 319 833 319 907 l 319 139 m 181 826 q 167 847 181 847 l 153 847 l 153 125 l 167 125 q 181 146 181 125 l 181 826 m 168 424 l 0 424 l 0 549 l 168 549 l 168 424 z "},"Đ":{"ha":333,"x_min":0,"x_max":319,"o":"m 319 139 q 282 33 319 65 q 167 0 244 0 l 14 0 l 14 972 l 168 972 q 282 940 244 972 q 319 833 319 907 l 319 139 m 181 826 q 167 847 181 847 l 153 847 l 153 125 l 167 125 q 181 146 181 125 l 181 826 m 168 424 l 0 424 l 0 549 l 168 549 l 168 424 z "},"È":{"ha":222,"x_min":14,"x_max":215,"o":"m 208 847 l 153 847 l 153 561 l 201 561 l 201 436 l 153 436 l 153 125 l 215 125 l 215 0 l 14 0 l 14 972 l 208 972 l 208 847 m 21 1183 l 132 1183 l 150 1008 l 61 1008 l 21 1183 z "},"É":{"ha":222,"x_min":14,"x_max":215,"o":"m 208 847 l 153 847 l 153 561 l 201 561 l 201 436 l 153 436 l 153 125 l 215 125 l 215 0 l 14 0 l 14 972 l 208 972 l 208 847 m 67 1008 l 85 1183 l 196 1183 l 156 1008 l 67 1008 z "},"Ê":{"ha":222,"x_min":4,"x_max":215,"o":"m 208 847 l 153 847 l 153 561 l 201 561 l 201 436 l 153 436 l 153 125 l 215 125 l 215 0 l 14 0 l 14 972 l 208 972 l 208 847 m 4 1008 l 43 1183 l 174 1183 l 213 1008 l 124 1008 l 110 1100 l 107 1100 l 93 1008 l 4 1008 z "},"Ë":{"ha":222,"x_min":11,"x_max":215,"o":"m 208 847 l 153 847 l 153 561 l 201 561 l 201 436 l 153 436 l 153 125 l 215 125 l 215 0 l 14 0 l 14 972 l 208 972 l 208 847 m 11 1165 l 94 1165 l 94 1026 l 11 1026 l 11 1165 m 124 1165 l 207 1165 l 207 1026 l 124 1026 l 124 1165 z "},"Ì":{"ha":167,"x_min":-4,"x_max":153,"o":"m 153 0 l 14 0 l 14 972 l 153 972 l 153 0 m -4 1183 l 107 1183 l 125 1008 l 36 1008 l -4 1183 z "},"Í":{"ha":167,"x_min":14,"x_max":171,"o":"m 153 0 l 14 0 l 14 972 l 153 972 l 153 0 m 42 1008 l 60 1183 l 171 1183 l 131 1008 l 42 1008 z "},"Î":{"ha":167,"x_min":-21,"x_max":188,"o":"m 153 0 l 14 0 l 14 972 l 153 972 l 153 0 m -21 1008 l 18 1183 l 149 1183 l 188 1008 l 99 1008 l 85 1100 l 82 1100 l 68 1008 l -21 1008 z "},"Ï":{"ha":167,"x_min":-14,"x_max":182,"o":"m 153 0 l 14 0 l 14 972 l 153 972 l 153 0 m -14 1165 l 69 1165 l 69 1026 l -14 1026 l -14 1165 m 99 1165 l 182 1165 l 182 1026 l 99 1026 l 99 1165 z "},"Ł":{"ha":225,"x_min":-50,"x_max":217,"o":"m 153 972 l 153 125 l 211 125 l 211 0 l 14 0 l 14 972 l 153 972 m 217 465 l 0 378 l -50 501 l 168 589 l 217 465 z "},"Ñ":{"ha":404,"x_min":14,"x_max":389,"o":"m 389 0 l 215 0 l 119 750 l 117 750 l 139 438 l 146 0 l 14 0 l 14 972 l 188 972 l 283 222 l 286 222 l 264 535 l 257 972 l 389 972 l 389 0 m 313 1165 q 301 1049 313 1083 q 261 1015 289 1015 q 233 1022 247 1015 q 204 1035 218 1028 q 178 1048 190 1042 q 157 1054 165 1054 q 138 1017 138 1054 l 138 1015 l 93 1015 l 93 1018 q 106 1132 93 1096 q 146 1168 118 1168 q 172 1163 158 1168 q 199 1150 186 1157 q 225 1138 213 1143 q 247 1132 238 1132 q 269 1165 269 1132 l 269 1168 l 313 1168 l 313 1165 z "},"Ò":{"ha":333,"x_min":14,"x_max":319,"o":"m 319 144 q 276 31 319 71 q 167 -8 233 -8 q 57 31 100 -8 q 14 144 14 71 l 14 828 q 58 940 14 900 q 168 981 101 981 q 277 941 235 981 q 319 828 319 901 l 319 144 m 181 835 q 167 856 181 856 q 153 835 153 856 l 153 138 q 167 117 153 117 q 181 138 181 117 l 181 835 m 81 1183 l 192 1183 l 210 1008 l 121 1008 l 81 1183 z "},"Ó":{"ha":333,"x_min":14,"x_max":319,"o":"m 319 144 q 276 31 319 71 q 167 -8 233 -8 q 57 31 100 -8 q 14 144 14 71 l 14 828 q 58 940 14 900 q 168 981 101 981 q 277 941 235 981 q 319 828 319 901 l 319 144 m 181 835 q 167 856 181 856 q 153 835 153 856 l 153 138 q 167 117 153 117 q 181 138 181 117 l 181 835 m 126 1008 l 144 1183 l 256 1183 l 215 1008 l 126 1008 z "},"Ô":{"ha":333,"x_min":14,"x_max":319,"o":"m 319 144 q 276 31 319 71 q 167 -8 233 -8 q 57 31 100 -8 q 14 144 14 71 l 14 828 q 58 940 14 900 q 168 981 101 981 q 277 941 235 981 q 319 828 319 901 l 319 144 m 181 835 q 167 856 181 856 q 153 835 153 856 l 153 138 q 167 117 153 117 q 181 138 181 117 l 181 835 m 64 1008 l 103 1183 l 233 1183 l 272 1008 l 183 1008 l 169 1100 l 167 1100 l 153 1008 l 64 1008 z "},"Õ":{"ha":333,"x_min":14,"x_max":319,"o":"m 319 144 q 276 31 319 71 q 167 -8 233 -8 q 57 31 100 -8 q 14 144 14 71 l 14 828 q 58 940 14 900 q 168 981 101 981 q 277 941 235 981 q 319 828 319 901 l 319 144 m 181 835 q 167 856 181 856 q 153 835 153 856 l 153 138 q 167 117 153 117 q 181 138 181 117 l 181 835 m 279 1165 q 267 1049 279 1083 q 228 1015 256 1015 q 199 1022 214 1015 q 171 1035 185 1028 q 144 1048 157 1042 q 124 1054 132 1054 q 104 1017 104 1054 l 104 1015 l 60 1015 l 60 1018 q 72 1132 60 1096 q 113 1168 85 1168 q 139 1163 125 1168 q 166 1150 153 1157 q 192 1138 179 1143 q 214 1132 204 1132 q 236 1165 236 1132 l 236 1168 l 279 1168 l 279 1165 z "},"Ö":{"ha":333,"x_min":14,"x_max":319,"o":"m 319 144 q 276 31 319 71 q 167 -8 233 -8 q 57 31 100 -8 q 14 144 14 71 l 14 828 q 58 940 14 900 q 168 981 101 981 q 277 941 235 981 q 319 828 319 901 l 319 144 m 181 835 q 167 856 181 856 q 153 835 153 856 l 153 138 q 167 117 153 117 q 181 138 181 117 l 181 835 m 71 1165 l 154 1165 l 154 1026 l 71 1026 l 71 1165 m 183 1165 l 267 1165 l 267 1026 l 183 1026 l 183 1165 z "},"Š":{"ha":328,"x_min":11,"x_max":317,"o":"m 317 144 q 274 31 317 71 q 164 -8 231 -8 q 54 31 97 -8 q 11 144 11 71 l 11 342 l 150 342 l 150 138 q 164 117 150 117 q 178 138 178 117 l 178 299 q 155 387 178 343 q 104 478 132 431 q 41 591 71 532 q 11 717 11 650 l 11 828 q 55 940 11 900 q 165 981 99 981 q 274 941 232 981 q 317 828 317 901 l 317 674 l 178 674 l 178 835 q 164 856 178 856 q 150 835 150 856 l 150 717 q 173 628 150 672 q 225 538 196 585 q 288 424 258 483 q 317 299 317 365 l 317 144 m 276 1183 l 238 1008 l 107 1008 l 68 1183 l 157 1183 l 171 1092 l 174 1092 l 188 1183 l 276 1183 z "},"Ù":{"ha":333,"x_min":14,"x_max":319,"o":"m 319 144 q 276 31 319 71 q 167 -8 233 -8 q 57 31 100 -8 q 14 144 14 71 l 14 972 l 153 972 l 153 138 q 167 117 153 117 q 181 138 181 117 l 181 972 l 319 972 l 319 144 m 79 1183 l 190 1183 l 208 1008 l 119 1008 l 79 1183 z "},"Ú":{"ha":333,"x_min":14,"x_max":319,"o":"m 319 144 q 276 31 319 71 q 167 -8 233 -8 q 57 31 100 -8 q 14 144 14 71 l 14 972 l 153 972 l 153 138 q 167 117 153 117 q 181 138 181 117 l 181 972 l 319 972 l 319 144 m 125 1008 l 143 1183 l 254 1183 l 214 1008 l 125 1008 z "},"Û":{"ha":333,"x_min":14,"x_max":319,"o":"m 319 144 q 276 31 319 71 q 167 -8 233 -8 q 57 31 100 -8 q 14 144 14 71 l 14 972 l 153 972 l 153 138 q 167 117 153 117 q 181 138 181 117 l 181 972 l 319 972 l 319 144 m 63 1008 l 101 1183 l 232 1183 l 271 1008 l 182 1008 l 168 1100 l 165 1100 l 151 1008 l 63 1008 z "},"Ü":{"ha":333,"x_min":14,"x_max":319,"o":"m 319 144 q 276 31 319 71 q 167 -8 233 -8 q 57 31 100 -8 q 14 144 14 71 l 14 972 l 153 972 l 153 138 q 167 117 153 117 q 181 138 181 117 l 181 972 l 319 972 l 319 144 m 69 1165 l 153 1165 l 153 1026 l 69 1026 l 69 1165 m 182 1165 l 265 1165 l 265 1026 l 182 1026 l 182 1165 z "},"Ÿ":{"ha":339,"x_min":0,"x_max":339,"o":"m 239 319 l 239 0 l 100 0 l 100 319 l 0 972 l 142 972 l 163 638 l 168 499 l 171 499 l 176 638 l 197 972 l 339 972 l 239 319 m 72 1165 l 156 1165 l 156 1026 l 72 1026 l 72 1165 m 185 1165 l 268 1165 l 268 1026 l 185 1026 l 185 1165 z "},"Ý":{"ha":339,"x_min":0,"x_max":339,"o":"m 239 319 l 239 0 l 100 0 l 100 319 l 0 972 l 142 972 l 163 638 l 168 499 l 171 499 l 176 638 l 197 972 l 339 972 l 239 319 m 128 1008 l 146 1183 l 257 1183 l 217 1008 l 128 1008 z "},"Ž":{"ha":271,"x_min":7,"x_max":264,"o":"m 264 847 l 149 125 l 263 125 l 263 0 l 7 0 l 7 125 l 122 847 l 14 847 l 14 972 l 264 972 l 264 847 m 251 1183 l 213 1008 l 82 1008 l 43 1183 l 132 1183 l 146 1092 l 149 1092 l 163 1183 l 251 1183 z "},"à":{"ha":322,"x_min":14,"x_max":308,"o":"m 147 508 l 14 508 l 14 647 q 55 760 14 721 q 160 800 96 800 q 266 760 224 800 q 308 647 308 719 l 308 0 l 175 0 l 175 100 l 172 100 q 143 19 165 47 q 83 -8 121 -8 q 31 21 47 -8 q 14 117 14 50 l 14 317 q 26 383 14 356 q 59 428 38 410 q 110 460 81 447 q 175 486 140 474 l 175 654 q 161 675 175 675 q 147 654 147 675 l 147 508 m 175 374 q 152 342 157 365 q 147 293 147 318 l 147 136 q 161 117 147 117 q 175 138 175 117 l 175 374 m 72 1003 l 183 1003 l 201 828 l 113 828 l 72 1003 z "},"á":{"ha":322,"x_min":14,"x_max":308,"o":"m 147 508 l 14 508 l 14 647 q 55 760 14 721 q 160 800 96 800 q 266 760 224 800 q 308 647 308 719 l 308 0 l 175 0 l 175 100 l 172 100 q 143 19 165 47 q 83 -8 121 -8 q 31 21 47 -8 q 14 117 14 50 l 14 317 q 26 383 14 356 q 59 428 38 410 q 110 460 81 447 q 175 486 140 474 l 175 654 q 161 675 175 675 q 147 654 147 675 l 147 508 m 175 374 q 152 342 157 365 q 147 293 147 318 l 147 136 q 161 117 147 117 q 175 138 175 117 l 175 374 m 118 828 l 136 1003 l 247 1003 l 207 828 l 118 828 z "},"â":{"ha":322,"x_min":14,"x_max":308,"o":"m 147 508 l 14 508 l 14 647 q 55 760 14 721 q 160 800 96 800 q 266 760 224 800 q 308 647 308 719 l 308 0 l 175 0 l 175 100 l 172 100 q 143 19 165 47 q 83 -8 121 -8 q 31 21 47 -8 q 14 117 14 50 l 14 317 q 26 383 14 356 q 59 428 38 410 q 110 460 81 447 q 175 486 140 474 l 175 654 q 161 675 175 675 q 147 654 147 675 l 147 508 m 175 374 q 152 342 157 365 q 147 293 147 318 l 147 136 q 161 117 147 117 q 175 138 175 117 l 175 374 m 56 828 l 94 1003 l 225 1003 l 264 828 l 175 828 l 161 919 l 158 919 l 144 828 l 56 828 z "},"ã":{"ha":322,"x_min":14,"x_max":308,"o":"m 147 508 l 14 508 l 14 647 q 55 760 14 721 q 160 800 96 800 q 266 760 224 800 q 308 647 308 719 l 308 0 l 175 0 l 175 100 l 172 100 q 143 19 165 47 q 83 -8 121 -8 q 31 21 47 -8 q 14 117 14 50 l 14 317 q 26 383 14 356 q 59 428 38 410 q 110 460 81 447 q 175 486 140 474 l 175 654 q 161 675 175 675 q 147 654 147 675 l 147 508 m 175 374 q 152 342 157 365 q 147 293 147 318 l 147 136 q 161 117 147 117 q 175 138 175 117 l 175 374 m 271 985 q 259 869 271 903 q 219 835 247 835 q 191 841 206 835 q 163 854 176 847 q 136 867 149 861 q 115 874 124 874 q 96 836 96 874 l 96 835 l 51 835 l 51 838 q 64 951 51 915 q 104 988 76 988 q 131 982 117 988 q 158 969 144 976 q 183 957 171 963 q 206 951 196 951 q 228 985 228 951 l 228 988 l 271 988 l 271 985 z "},"ä":{"ha":322,"x_min":14,"x_max":308,"o":"m 147 508 l 14 508 l 14 647 q 55 760 14 721 q 160 800 96 800 q 266 760 224 800 q 308 647 308 719 l 308 0 l 175 0 l 175 100 l 172 100 q 143 19 165 47 q 83 -8 121 -8 q 31 21 47 -8 q 14 117 14 50 l 14 317 q 26 383 14 356 q 59 428 38 410 q 110 460 81 447 q 175 486 140 474 l 175 654 q 161 675 175 675 q 147 654 147 675 l 147 508 m 175 374 q 152 342 157 365 q 147 293 147 318 l 147 136 q 161 117 147 117 q 175 138 175 117 l 175 374 m 63 985 l 146 985 l 146 846 l 63 846 l 63 985 m 175 985 l 258 985 l 258 846 l 175 846 l 175 985 z "},"å":{"ha":322,"x_min":14,"x_max":308,"o":"m 147 508 l 14 508 l 14 647 q 55 760 14 721 q 160 800 96 800 q 266 760 224 800 q 308 647 308 719 l 308 0 l 175 0 l 175 100 l 172 100 q 143 19 165 47 q 83 -8 121 -8 q 31 21 47 -8 q 14 117 14 50 l 14 317 q 26 383 14 356 q 59 428 38 410 q 110 460 81 447 q 175 486 140 474 l 175 654 q 161 675 175 675 q 147 654 147 675 l 147 508 m 175 374 q 152 342 157 365 q 147 293 147 318 l 147 136 q 161 117 147 117 q 175 138 175 117 l 175 374 m 63 915 q 160 1010 63 1010 q 231 985 206 1010 q 256 914 256 961 q 160 819 256 819 q 63 915 63 819 m 131 914 q 160 886 131 886 q 188 914 188 886 q 160 943 188 943 q 131 914 131 943 z "},"ç":{"ha":322,"x_min":14,"x_max":308,"o":"m 175 654 q 161 675 175 675 q 147 654 147 675 l 147 138 q 161 117 147 117 q 175 138 175 117 l 175 338 l 308 338 l 308 144 q 267 31 308 71 q 161 -8 225 -8 q 56 31 97 -8 q 14 144 14 71 l 14 647 q 56 760 14 719 q 163 800 99 800 q 267 760 226 800 q 308 647 308 721 l 308 490 l 175 490 l 175 654 m 201 6 l 190 -29 q 260 -52 232 -29 q 289 -110 289 -75 q 251 -172 289 -149 q 153 -196 214 -196 q 124 -194 139 -196 q 92 -189 108 -192 l 92 -106 q 117 -110 106 -108 q 139 -112 128 -112 q 189 -89 189 -112 q 170 -68 189 -75 q 122 -61 151 -61 l 136 6 l 201 6 z "},"đ":{"ha":322,"x_min":14,"x_max":336,"o":"m 175 0 l 175 56 l 172 56 q 94 -8 150 -8 q 14 144 14 -8 l 14 647 q 33 763 14 726 q 93 800 53 800 q 141 783 121 800 q 172 735 161 765 l 175 735 l 175 1014 l 308 1014 l 308 0 l 175 0 m 147 138 q 161 117 147 117 q 175 138 175 117 l 175 654 q 161 675 175 675 q 147 654 147 675 l 147 138 m 336 804 l 142 804 l 142 938 l 336 938 l 336 804 z "},"è":{"ha":322,"x_min":14,"x_max":308,"o":"m 308 310 l 308 144 q 267 31 308 71 q 161 -8 225 -8 q 56 31 97 -8 q 14 144 14 71 l 14 647 q 56 760 14 719 q 163 800 99 800 q 267 760 226 800 q 308 647 308 721 l 308 361 l 147 361 l 147 138 q 161 117 147 117 q 175 138 175 117 l 175 310 l 308 310 m 175 654 q 161 675 175 675 q 147 654 147 675 l 147 486 l 175 486 l 175 654 m 75 1003 l 186 1003 l 204 828 l 115 828 l 75 1003 z "},"é":{"ha":322,"x_min":14,"x_max":308,"o":"m 308 310 l 308 144 q 267 31 308 71 q 161 -8 225 -8 q 56 31 97 -8 q 14 144 14 71 l 14 647 q 56 760 14 719 q 163 800 99 800 q 267 760 226 800 q 308 647 308 721 l 308 361 l 147 361 l 147 138 q 161 117 147 117 q 175 138 175 117 l 175 310 l 308 310 m 175 654 q 161 675 175 675 q 147 654 147 675 l 147 486 l 175 486 l 175 654 m 121 828 l 139 1003 l 250 1003 l 210 828 l 121 828 z "},"ê":{"ha":322,"x_min":14,"x_max":308,"o":"m 308 310 l 308 144 q 267 31 308 71 q 161 -8 225 -8 q 56 31 97 -8 q 14 144 14 71 l 14 647 q 56 760 14 719 q 163 800 99 800 q 267 760 226 800 q 308 647 308 721 l 308 361 l 147 361 l 147 138 q 161 117 147 117 q 175 138 175 117 l 175 310 l 308 310 m 175 654 q 161 675 175 675 q 147 654 147 675 l 147 486 l 175 486 l 175 654 m 58 828 l 97 1003 l 228 1003 l 267 828 l 178 828 l 164 919 l 161 919 l 147 828 l 58 828 z "},"ë":{"ha":322,"x_min":14,"x_max":308,"o":"m 308 310 l 308 144 q 267 31 308 71 q 161 -8 225 -8 q 56 31 97 -8 q 14 144 14 71 l 14 647 q 56 760 14 719 q 163 800 99 800 q 267 760 226 800 q 308 647 308 721 l 308 361 l 147 361 l 147 138 q 161 117 147 117 q 175 138 175 117 l 175 310 l 308 310 m 175 654 q 161 675 175 675 q 147 654 147 675 l 147 486 l 175 486 l 175 654 m 65 985 l 149 985 l 149 846 l 65 846 l 65 985 m 178 985 l 261 985 l 261 846 l 178 846 l 178 985 z "},"ì":{"ha":161,"x_min":-7,"x_max":147,"o":"m 14 792 l 147 792 l 147 0 l 14 0 l 14 792 m -7 1003 l 104 1003 l 122 828 l 33 828 l -7 1003 z "},"í":{"ha":161,"x_min":14,"x_max":168,"o":"m 14 792 l 147 792 l 147 0 l 14 0 l 14 792 m 39 828 l 57 1003 l 168 1003 l 128 828 l 39 828 z "},"î":{"ha":161,"x_min":-24,"x_max":185,"o":"m 14 792 l 147 792 l 147 0 l 14 0 l 14 792 m -24 828 l 15 1003 l 146 1003 l 185 828 l 96 828 l 82 919 l 79 919 l 65 828 l -24 828 z "},"ï":{"ha":161,"x_min":-17,"x_max":179,"o":"m 14 792 l 147 792 l 147 0 l 14 0 l 14 792 m -17 985 l 67 985 l 67 846 l -17 846 l -17 985 m 96 985 l 179 985 l 179 846 l 96 846 l 96 985 z "},"ł":{"ha":161,"x_min":-50,"x_max":213,"o":"m 14 1014 l 147 1014 l 147 0 l 14 0 l 14 1014 m 213 482 l 0 390 l -50 514 l 164 606 l 213 482 z "},"ñ":{"ha":322,"x_min":14,"x_max":308,"o":"m 175 654 q 161 675 175 675 q 147 654 147 675 l 147 0 l 14 0 l 14 792 l 147 792 l 147 736 l 150 735 q 228 800 172 800 q 288 763 268 800 q 308 647 308 726 l 308 0 l 175 0 l 175 654 m 272 985 q 260 869 272 903 q 221 835 249 835 q 192 841 207 835 q 164 854 178 847 q 138 867 150 861 q 117 874 125 874 q 97 836 97 874 l 97 835 l 53 835 l 53 838 q 65 951 53 915 q 106 988 78 988 q 132 982 118 988 q 159 969 146 976 q 185 957 172 963 q 207 951 197 951 q 229 985 229 951 l 229 988 l 272 988 l 272 985 z "},"ò":{"ha":322,"x_min":14,"x_max":308,"o":"m 308 144 q 267 31 308 71 q 161 -8 225 -8 q 56 31 97 -8 q 14 144 14 71 l 14 647 q 56 760 14 719 q 163 800 99 800 q 267 760 226 800 q 308 647 308 721 l 308 144 m 175 654 q 161 675 175 675 q 147 654 147 675 l 147 138 q 161 117 147 117 q 175 138 175 117 l 175 654 m 75 1003 l 186 1003 l 204 828 l 115 828 l 75 1003 z "},"ó":{"ha":322,"x_min":14,"x_max":308,"o":"m 308 144 q 267 31 308 71 q 161 -8 225 -8 q 56 31 97 -8 q 14 144 14 71 l 14 647 q 56 760 14 719 q 163 800 99 800 q 267 760 226 800 q 308 647 308 721 l 308 144 m 175 654 q 161 675 175 675 q 147 654 147 675 l 147 138 q 161 117 147 117 q 175 138 175 117 l 175 654 m 121 828 l 139 1003 l 250 1003 l 210 828 l 121 828 z "},"ô":{"ha":322,"x_min":14,"x_max":308,"o":"m 308 144 q 267 31 308 71 q 161 -8 225 -8 q 56 31 97 -8 q 14 144 14 71 l 14 647 q 56 760 14 719 q 163 800 99 800 q 267 760 226 800 q 308 647 308 721 l 308 144 m 175 654 q 161 675 175 675 q 147 654 147 675 l 147 138 q 161 117 147 117 q 175 138 175 117 l 175 654 m 58 828 l 97 1003 l 228 1003 l 267 828 l 178 828 l 164 919 l 161 919 l 147 828 l 58 828 z "},"õ":{"ha":322,"x_min":14,"x_max":308,"o":"m 308 144 q 267 31 308 71 q 161 -8 225 -8 q 56 31 97 -8 q 14 144 14 71 l 14 647 q 56 760 14 719 q 163 800 99 800 q 267 760 226 800 q 308 647 308 721 l 308 144 m 175 654 q 161 675 175 675 q 147 654 147 675 l 147 138 q 161 117 147 117 q 175 138 175 117 l 175 654 m 274 985 q 262 869 274 903 q 222 835 250 835 q 194 841 208 835 q 165 854 179 847 q 139 867 151 861 q 118 874 126 874 q 99 836 99 874 l 99 835 l 54 835 l 54 838 q 67 951 54 915 q 107 988 79 988 q 133 982 119 988 q 160 969 147 976 q 186 957 174 963 q 208 951 199 951 q 231 985 231 951 l 231 988 l 274 988 l 274 985 z "},"ö":{"ha":322,"x_min":14,"x_max":308,"o":"m 308 144 q 267 31 308 71 q 161 -8 225 -8 q 56 31 97 -8 q 14 144 14 71 l 14 647 q 56 760 14 719 q 163 800 99 800 q 267 760 226 800 q 308 647 308 721 l 308 144 m 175 654 q 161 675 175 675 q 147 654 147 675 l 147 138 q 161 117 147 117 q 175 138 175 117 l 175 654 m 65 985 l 149 985 l 149 846 l 65 846 l 65 985 m 178 985 l 261 985 l 261 846 l 178 846 l 178 985 z "},"š":{"ha":317,"x_min":11,"x_max":306,"o":"m 306 144 q 264 31 306 71 q 158 -8 222 -8 q 53 31 94 -8 q 11 144 11 71 l 11 279 l 144 279 l 144 138 q 158 117 144 117 q 172 138 172 117 l 172 260 q 152 318 172 289 q 106 379 132 347 q 42 463 72 418 q 11 568 11 508 l 11 647 q 53 760 11 719 q 160 800 96 800 q 265 760 224 800 q 306 647 306 721 l 306 550 l 172 550 l 172 654 q 158 675 172 675 q 144 654 144 675 l 144 568 q 165 508 144 536 q 213 449 185 479 q 276 364 246 410 q 306 260 306 318 l 306 144 m 271 1003 l 232 828 l 101 828 l 63 1003 l 151 1003 l 165 911 l 168 911 l 182 1003 l 271 1003 z "},"ù":{"ha":322,"x_min":14,"x_max":308,"o":"m 147 138 q 161 117 147 117 q 175 138 175 117 l 175 792 l 308 792 l 308 0 l 175 0 l 175 56 l 172 57 q 94 -8 150 -8 q 34 28 54 -8 q 14 144 14 65 l 14 792 l 147 792 l 147 138 m 74 1003 l 185 1003 l 203 828 l 114 828 l 74 1003 z "},"ú":{"ha":322,"x_min":14,"x_max":308,"o":"m 147 138 q 161 117 147 117 q 175 138 175 117 l 175 792 l 308 792 l 308 0 l 175 0 l 175 56 l 172 57 q 94 -8 150 -8 q 34 28 54 -8 q 14 144 14 65 l 14 792 l 147 792 l 147 138 m 119 828 l 138 1003 l 249 1003 l 208 828 l 119 828 z "},"û":{"ha":322,"x_min":14,"x_max":308,"o":"m 147 138 q 161 117 147 117 q 175 138 175 117 l 175 792 l 308 792 l 308 0 l 175 0 l 175 56 l 172 57 q 94 -8 150 -8 q 34 28 54 -8 q 14 144 14 65 l 14 792 l 147 792 l 147 138 m 57 828 l 96 1003 l 226 1003 l 265 828 l 176 828 l 163 919 l 160 919 l 146 828 l 57 828 z "},"ü":{"ha":322,"x_min":14,"x_max":308,"o":"m 147 138 q 161 117 147 117 q 175 138 175 117 l 175 792 l 308 792 l 308 0 l 175 0 l 175 56 l 172 57 q 94 -8 150 -8 q 34 28 54 -8 q 14 144 14 65 l 14 792 l 147 792 l 147 138 m 64 985 l 147 985 l 147 846 l 64 846 l 64 985 m 176 985 l 260 985 l 260 846 l 176 846 l 176 985 z "},"ý":{"ha":331,"x_min":-3,"x_max":332,"o":"m 165 364 l 171 226 l 172 226 l 178 364 l 199 790 l 332 790 l 200 -222 l 67 -222 l 97 0 l -3 790 l 144 790 l 165 364 m 124 828 l 142 1003 l 253 1003 l 213 828 l 124 828 z "},"ÿ":{"ha":331,"x_min":-3,"x_max":332,"o":"m 165 364 l 171 226 l 172 226 l 178 364 l 199 790 l 332 790 l 200 -222 l 67 -222 l 97 0 l -3 790 l 144 790 l 165 364 m 68 985 l 151 985 l 151 846 l 68 846 l 68 985 m 181 985 l 264 985 l 264 846 l 181 846 l 181 985 z "},"ž":{"ha":265,"x_min":7,"x_max":258,"o":"m 258 672 l 143 119 l 257 119 l 257 0 l 7 0 l 7 100 l 122 672 l 14 672 l 14 792 l 258 792 l 258 672 m 243 1003 l 204 828 l 74 828 l 35 1003 l 124 1003 l 138 911 l 140 911 l 154 1003 l 243 1003 z "},"Ā":{"ha":347,"x_min":0,"x_max":347,"o":"m 347 0 l 194 0 l 186 232 l 147 232 l 139 0 l 0 0 l 76 972 l 271 972 l 347 0 m 182 357 l 172 651 l 168 819 l 165 819 l 161 651 l 151 357 l 182 357 m 271 1032 l 76 1032 l 76 1157 l 271 1157 l 271 1032 z "},"ā":{"ha":322,"x_min":14,"x_max":308,"o":"m 147 508 l 14 508 l 14 647 q 55 760 14 721 q 160 800 96 800 q 266 760 224 800 q 308 647 308 719 l 308 0 l 175 0 l 175 100 l 172 100 q 143 19 165 47 q 83 -8 121 -8 q 31 21 47 -8 q 14 117 14 50 l 14 317 q 26 383 14 356 q 59 428 38 410 q 110 460 81 447 q 175 486 140 474 l 175 654 q 161 675 175 675 q 147 654 147 675 l 147 508 m 175 374 q 152 342 157 365 q 147 293 147 318 l 147 136 q 161 117 147 117 q 175 138 175 117 l 175 374 m 257 851 l 63 851 l 63 976 l 257 976 l 257 851 z "},"Ă":{"ha":347,"x_min":0,"x_max":347,"o":"m 347 0 l 194 0 l 186 232 l 147 232 l 139 0 l 0 0 l 76 972 l 271 972 l 347 0 m 182 357 l 172 651 l 168 819 l 165 819 l 161 651 l 151 357 l 182 357 m 149 1176 q 174 1125 149 1125 q 199 1176 199 1125 l 296 1176 q 265 1051 296 1088 q 174 1014 235 1014 q 83 1051 114 1014 q 51 1176 51 1088 l 149 1176 z "},"ă":{"ha":322,"x_min":14,"x_max":308,"o":"m 147 508 l 14 508 l 14 647 q 55 760 14 721 q 160 800 96 800 q 266 760 224 800 q 308 647 308 719 l 308 0 l 175 0 l 175 100 l 172 100 q 143 19 165 47 q 83 -8 121 -8 q 31 21 47 -8 q 14 117 14 50 l 14 317 q 26 383 14 356 q 59 428 38 410 q 110 460 81 447 q 175 486 140 474 l 175 654 q 161 675 175 675 q 147 654 147 675 l 147 508 m 175 374 q 152 342 157 365 q 147 293 147 318 l 147 136 q 161 117 147 117 q 175 138 175 117 l 175 374 m 135 996 q 160 944 135 944 q 185 996 185 944 l 282 996 q 251 870 282 907 q 160 833 221 833 q 69 870 100 833 q 38 996 38 907 l 135 996 z "},"Ą":{"ha":347,"x_min":0,"x_max":347,"o":"m 347 0 l 194 0 l 186 232 l 147 232 l 139 0 l 0 0 l 76 972 l 271 972 l 347 0 m 182 357 l 172 651 l 168 819 l 165 819 l 161 651 l 151 357 l 182 357 m 346 0 q 298 -14 319 0 q 276 -44 276 -28 q 291 -63 276 -58 q 322 -68 306 -68 q 346 -65 332 -68 l 346 -176 q 299 -181 321 -181 q 217 -156 244 -181 q 190 -100 190 -132 q 200 -61 190 -81 q 229 -26 210 -42 q 278 -1 249 -11 q 346 8 307 8 l 346 0 z "},"ą":{"ha":322,"x_min":14,"x_max":308,"o":"m 147 508 l 14 508 l 14 647 q 55 760 14 721 q 160 800 96 800 q 266 760 224 800 q 308 647 308 719 l 308 0 l 175 0 l 175 100 l 172 100 q 143 19 165 47 q 83 -8 121 -8 q 31 21 47 -8 q 14 117 14 50 l 14 317 q 26 383 14 356 q 59 428 38 410 q 110 460 81 447 q 175 486 140 474 l 175 654 q 161 675 175 675 q 147 654 147 675 l 147 508 m 175 374 q 152 342 157 365 q 147 293 147 318 l 147 136 q 161 117 147 117 q 175 138 175 117 l 175 374 m 307 0 q 259 -14 281 0 q 238 -44 238 -28 q 252 -63 238 -58 q 283 -68 267 -68 q 307 -65 293 -68 l 307 -176 q 260 -181 282 -181 q 178 -156 206 -181 q 151 -100 151 -132 q 161 -61 151 -81 q 190 -26 171 -42 q 239 -1 210 -11 q 307 8 268 8 l 307 0 z "},"Ć":{"ha":333,"x_min":14,"x_max":319,"o":"m 181 835 q 167 856 181 856 q 153 835 153 856 l 153 138 q 167 117 153 117 q 181 138 181 117 l 181 411 l 319 411 l 319 144 q 276 31 319 71 q 167 -8 233 -8 q 57 31 100 -8 q 14 144 14 71 l 14 828 q 58 940 14 900 q 168 981 101 981 q 277 941 235 981 q 319 828 319 901 l 319 604 l 181 604 l 181 835 m 126 1008 l 144 1183 l 256 1183 l 215 1008 l 126 1008 z "},"ć":{"ha":322,"x_min":14,"x_max":308,"o":"m 175 654 q 161 675 175 675 q 147 654 147 675 l 147 138 q 161 117 147 117 q 175 138 175 117 l 175 338 l 308 338 l 308 144 q 267 31 308 71 q 161 -8 225 -8 q 56 31 97 -8 q 14 144 14 71 l 14 647 q 56 760 14 719 q 163 800 99 800 q 267 760 226 800 q 308 647 308 721 l 308 490 l 175 490 l 175 654 m 121 828 l 139 1003 l 250 1003 l 210 828 l 121 828 z "},"Ĉ":{"ha":333,"x_min":14,"x_max":319,"o":"m 181 835 q 167 856 181 856 q 153 835 153 856 l 153 138 q 167 117 153 117 q 181 138 181 117 l 181 411 l 319 411 l 319 144 q 276 31 319 71 q 167 -8 233 -8 q 57 31 100 -8 q 14 144 14 71 l 14 828 q 58 940 14 900 q 168 981 101 981 q 277 941 235 981 q 319 828 319 901 l 319 604 l 181 604 l 181 835 m 64 1008 l 103 1183 l 233 1183 l 272 1008 l 183 1008 l 169 1100 l 167 1100 l 153 1008 l 64 1008 z "},"ĉ":{"ha":322,"x_min":14,"x_max":308,"o":"m 175 654 q 161 675 175 675 q 147 654 147 675 l 147 138 q 161 117 147 117 q 175 138 175 117 l 175 338 l 308 338 l 308 144 q 267 31 308 71 q 161 -8 225 -8 q 56 31 97 -8 q 14 144 14 71 l 14 647 q 56 760 14 719 q 163 800 99 800 q 267 760 226 800 q 308 647 308 721 l 308 490 l 175 490 l 175 654 m 58 828 l 97 1003 l 228 1003 l 267 828 l 178 828 l 164 919 l 161 919 l 147 828 l 58 828 z "},"Ċ":{"ha":333,"x_min":14,"x_max":319,"o":"m 181 835 q 167 856 181 856 q 153 835 153 856 l 153 138 q 167 117 153 117 q 181 138 181 117 l 181 411 l 319 411 l 319 144 q 276 31 319 71 q 167 -8 233 -8 q 57 31 100 -8 q 14 144 14 71 l 14 828 q 58 940 14 900 q 168 981 101 981 q 277 941 235 981 q 319 828 319 901 l 319 604 l 181 604 l 181 835 m 113 1165 l 224 1165 l 224 1026 l 113 1026 l 113 1165 z "},"ċ":{"ha":322,"x_min":14,"x_max":308,"o":"m 175 654 q 161 675 175 675 q 147 654 147 675 l 147 138 q 161 117 147 117 q 175 138 175 117 l 175 338 l 308 338 l 308 144 q 267 31 308 71 q 161 -8 225 -8 q 56 31 97 -8 q 14 144 14 71 l 14 647 q 56 760 14 719 q 163 800 99 800 q 267 760 226 800 q 308 647 308 721 l 308 490 l 175 490 l 175 654 m 107 985 l 218 985 l 218 846 l 107 846 l 107 985 z "},"Č":{"ha":333,"x_min":14,"x_max":319,"o":"m 181 835 q 167 856 181 856 q 153 835 153 856 l 153 138 q 167 117 153 117 q 181 138 181 117 l 181 411 l 319 411 l 319 144 q 276 31 319 71 q 167 -8 233 -8 q 57 31 100 -8 q 14 144 14 71 l 14 828 q 58 940 14 900 q 168 981 101 981 q 277 941 235 981 q 319 828 319 901 l 319 604 l 181 604 l 181 835 m 279 1183 l 240 1008 l 110 1008 l 71 1183 l 160 1183 l 174 1092 l 176 1092 l 190 1183 l 279 1183 z "},"č":{"ha":322,"x_min":14,"x_max":308,"o":"m 175 654 q 161 675 175 675 q 147 654 147 675 l 147 138 q 161 117 147 117 q 175 138 175 117 l 175 338 l 308 338 l 308 144 q 267 31 308 71 q 161 -8 225 -8 q 56 31 97 -8 q 14 144 14 71 l 14 647 q 56 760 14 719 q 163 800 99 800 q 267 760 226 800 q 308 647 308 721 l 308 490 l 175 490 l 175 654 m 274 1003 l 235 828 l 104 828 l 65 1003 l 154 1003 l 168 911 l 171 911 l 185 1003 l 274 1003 z "},"Ď":{"ha":333,"x_min":14,"x_max":319,"o":"m 319 139 q 282 33 319 65 q 167 0 244 0 l 14 0 l 14 972 l 168 972 q 282 940 244 972 q 319 833 319 907 l 319 139 m 181 826 q 167 847 181 847 l 153 847 l 153 125 l 167 125 q 181 146 181 125 l 181 826 m 257 1183 l 218 1008 l 88 1008 l 49 1183 l 138 1183 l 151 1092 l 154 1092 l 168 1183 l 257 1183 z "},"ď":{"ha":442,"x_min":14,"x_max":442,"o":"m 175 0 l 175 56 l 172 56 q 94 -8 150 -8 q 14 144 14 -8 l 14 647 q 33 763 14 726 q 93 800 53 800 q 141 783 121 800 q 172 735 161 765 l 175 735 l 175 1014 l 308 1014 l 308 0 l 175 0 m 147 138 q 161 117 147 117 q 175 138 175 117 l 175 654 q 161 675 175 675 q 147 654 147 675 l 147 138 m 336 1014 l 442 1014 l 406 851 l 328 851 l 336 1014 z "},"Ē":{"ha":222,"x_min":11,"x_max":215,"o":"m 208 847 l 153 847 l 153 561 l 201 561 l 201 436 l 153 436 l 153 125 l 215 125 l 215 0 l 14 0 l 14 972 l 208 972 l 208 847 m 206 1032 l 11 1032 l 11 1157 l 206 1157 l 206 1032 z "},"ē":{"ha":322,"x_min":14,"x_max":308,"o":"m 308 310 l 308 144 q 267 31 308 71 q 161 -8 225 -8 q 56 31 97 -8 q 14 144 14 71 l 14 647 q 56 760 14 719 q 163 800 99 800 q 267 760 226 800 q 308 647 308 721 l 308 361 l 147 361 l 147 138 q 161 117 147 117 q 175 138 175 117 l 175 310 l 308 310 m 175 654 q 161 675 175 675 q 147 654 147 675 l 147 486 l 175 486 l 175 654 m 260 851 l 65 851 l 65 976 l 260 976 l 260 851 z "},"Ĕ":{"ha":222,"x_min":-14,"x_max":231,"o":"m 208 847 l 153 847 l 153 561 l 201 561 l 201 436 l 153 436 l 153 125 l 215 125 l 215 0 l 14 0 l 14 972 l 208 972 l 208 847 m 83 1176 q 108 1125 83 1125 q 133 1176 133 1125 l 231 1176 q 200 1051 231 1088 q 108 1014 169 1014 q 17 1051 49 1014 q -14 1176 -14 1088 l 83 1176 z "},"ĕ":{"ha":322,"x_min":14,"x_max":308,"o":"m 308 310 l 308 144 q 267 31 308 71 q 161 -8 225 -8 q 56 31 97 -8 q 14 144 14 71 l 14 647 q 56 760 14 719 q 163 800 99 800 q 267 760 226 800 q 308 647 308 721 l 308 361 l 147 361 l 147 138 q 161 117 147 117 q 175 138 175 117 l 175 310 l 308 310 m 175 654 q 161 675 175 675 q 147 654 147 675 l 147 486 l 175 486 l 175 654 m 138 996 q 163 944 138 944 q 188 996 188 944 l 285 996 q 254 870 285 907 q 163 833 224 833 q 72 870 103 833 q 40 996 40 907 l 138 996 z "},"Ė":{"ha":222,"x_min":14,"x_max":215,"o":"m 208 847 l 153 847 l 153 561 l 201 561 l 201 436 l 153 436 l 153 125 l 215 125 l 215 0 l 14 0 l 14 972 l 208 972 l 208 847 m 53 1165 l 164 1165 l 164 1026 l 53 1026 l 53 1165 z "},"ė":{"ha":322,"x_min":14,"x_max":308,"o":"m 308 310 l 308 144 q 267 31 308 71 q 161 -8 225 -8 q 56 31 97 -8 q 14 144 14 71 l 14 647 q 56 760 14 719 q 163 800 99 800 q 267 760 226 800 q 308 647 308 721 l 308 361 l 147 361 l 147 138 q 161 117 147 117 q 175 138 175 117 l 175 310 l 308 310 m 175 654 q 161 675 175 675 q 147 654 147 675 l 147 486 l 175 486 l 175 654 m 107 985 l 218 985 l 218 846 l 107 846 l 107 985 z "},"Ę":{"ha":222,"x_min":14,"x_max":215,"o":"m 208 847 l 153 847 l 153 561 l 201 561 l 201 436 l 153 436 l 153 125 l 215 125 l 215 0 l 14 0 l 14 972 l 208 972 l 208 847 m 214 0 q 166 -14 188 0 q 144 -44 144 -28 q 159 -63 144 -58 q 190 -68 174 -68 q 214 -65 200 -68 l 214 -176 q 167 -181 189 -181 q 85 -156 113 -181 q 58 -100 58 -132 q 68 -61 58 -81 q 97 -26 78 -42 q 146 -1 117 -11 q 214 8 175 8 l 214 0 z "},"ę":{"ha":322,"x_min":14,"x_max":308,"o":"m 308 310 l 308 144 q 267 31 308 71 q 161 -8 225 -8 q 56 31 97 -8 q 14 144 14 71 l 14 647 q 56 760 14 719 q 163 800 99 800 q 267 760 226 800 q 308 647 308 721 l 308 361 l 147 361 l 147 138 q 161 117 147 117 q 175 138 175 117 l 175 310 l 308 310 m 175 654 q 161 675 175 675 q 147 654 147 675 l 147 486 l 175 486 l 175 654 m 204 -3 q 178 -19 189 -10 q 167 -40 167 -29 q 181 -59 167 -54 q 213 -64 196 -64 q 236 -61 222 -64 l 236 -172 q 193 -176 211 -176 q 110 -149 140 -176 q 81 -85 81 -121 q 108 -26 81 -53 q 200 10 136 1 l 204 -3 z "},"Ě":{"ha":222,"x_min":14,"x_max":215,"o":"m 208 847 l 153 847 l 153 561 l 201 561 l 201 436 l 153 436 l 153 125 l 215 125 l 215 0 l 14 0 l 14 972 l 208 972 l 208 847 m 219 1183 l 181 1008 l 50 1008 l 11 1183 l 100 1183 l 114 1092 l 117 1092 l 131 1183 l 219 1183 z "},"ě":{"ha":322,"x_min":14,"x_max":308,"o":"m 308 310 l 308 144 q 267 31 308 71 q 161 -8 225 -8 q 56 31 97 -8 q 14 144 14 71 l 14 647 q 56 760 14 719 q 163 800 99 800 q 267 760 226 800 q 308 647 308 721 l 308 361 l 147 361 l 147 138 q 161 117 147 117 q 175 138 175 117 l 175 310 l 308 310 m 175 654 q 161 675 175 675 q 147 654 147 675 l 147 486 l 175 486 l 175 654 m 274 1003 l 235 828 l 104 828 l 65 1003 l 154 1003 l 168 911 l 171 911 l 185 1003 l 274 1003 z "},"Ĝ":{"ha":333,"x_min":14,"x_max":319,"o":"m 319 513 l 319 0 l 181 0 l 181 56 l 178 57 q 147 8 167 25 q 103 -8 128 -8 q 39 31 64 -8 q 14 144 14 71 l 14 828 q 58 940 14 900 q 168 981 101 981 q 277 941 235 981 q 319 828 319 901 l 319 604 l 181 604 l 181 835 q 167 856 181 856 q 153 835 153 856 l 153 132 q 167 111 153 111 q 181 132 181 111 l 181 388 l 167 388 l 167 513 l 319 513 m 64 1008 l 103 1183 l 233 1183 l 272 1008 l 183 1008 l 169 1100 l 167 1100 l 153 1008 l 64 1008 z "},"ĝ":{"ha":322,"x_min":14,"x_max":308,"o":"m 308 -78 q 267 -191 308 -151 q 161 -231 225 -231 q 56 -192 97 -231 q 14 -86 14 -153 l 14 -42 l 147 -42 l 147 -85 q 161 -106 147 -106 q 175 -85 175 -106 l 175 57 l 172 57 q 141 9 161 26 q 93 -8 121 -8 q 33 28 53 -8 q 14 144 14 65 l 14 647 q 34 763 14 726 q 94 800 54 800 q 172 736 150 800 l 175 736 l 175 792 l 308 792 l 308 -78 m 147 138 q 161 117 147 117 q 175 138 175 117 l 175 654 q 161 675 175 675 q 147 654 147 675 l 147 138 m 61 828 l 100 1003 l 231 1003 l 269 828 l 181 828 l 167 919 l 164 919 l 150 828 l 61 828 z "},"Ğ":{"ha":333,"x_min":14,"x_max":319,"o":"m 319 513 l 319 0 l 181 0 l 181 56 l 178 57 q 147 8 167 25 q 103 -8 128 -8 q 39 31 64 -8 q 14 144 14 71 l 14 828 q 58 940 14 900 q 168 981 101 981 q 277 941 235 981 q 319 828 319 901 l 319 604 l 181 604 l 181 835 q 167 856 181 856 q 153 835 153 856 l 153 132 q 167 111 153 111 q 181 132 181 111 l 181 388 l 167 388 l 167 513 l 319 513 m 143 1176 q 168 1125 143 1125 q 193 1176 193 1125 l 290 1176 q 260 1051 290 1088 q 168 1014 229 1014 q 77 1051 108 1014 q 46 1176 46 1088 l 143 1176 z "},"ğ":{"ha":322,"x_min":14,"x_max":308,"o":"m 308 -78 q 267 -191 308 -151 q 161 -231 225 -231 q 56 -192 97 -231 q 14 -86 14 -153 l 14 -42 l 147 -42 l 147 -85 q 161 -106 147 -106 q 175 -85 175 -106 l 175 57 l 172 57 q 141 9 161 26 q 93 -8 121 -8 q 33 28 53 -8 q 14 144 14 65 l 14 647 q 34 763 14 726 q 94 800 54 800 q 172 736 150 800 l 175 736 l 175 792 l 308 792 l 308 -78 m 147 138 q 161 117 147 117 q 175 138 175 117 l 175 654 q 161 675 175 675 q 147 654 147 675 l 147 138 m 140 996 q 165 944 140 944 q 190 996 190 944 l 288 996 q 257 870 288 907 q 165 833 226 833 q 74 870 106 833 q 43 996 43 907 l 140 996 z "},"Ġ":{"ha":333,"x_min":14,"x_max":319,"o":"m 319 513 l 319 0 l 181 0 l 181 56 l 178 57 q 147 8 167 25 q 103 -8 128 -8 q 39 31 64 -8 q 14 144 14 71 l 14 828 q 58 940 14 900 q 168 981 101 981 q 277 941 235 981 q 319 828 319 901 l 319 604 l 181 604 l 181 835 q 167 856 181 856 q 153 835 153 856 l 153 132 q 167 111 153 111 q 181 132 181 111 l 181 388 l 167 388 l 167 513 l 319 513 m 113 1165 l 224 1165 l 224 1026 l 113 1026 l 113 1165 z "},"ġ":{"ha":322,"x_min":14,"x_max":308,"o":"m 308 -78 q 267 -191 308 -151 q 161 -231 225 -231 q 56 -192 97 -231 q 14 -86 14 -153 l 14 -42 l 147 -42 l 147 -85 q 161 -106 147 -106 q 175 -85 175 -106 l 175 57 l 172 57 q 141 9 161 26 q 93 -8 121 -8 q 33 28 53 -8 q 14 144 14 65 l 14 647 q 34 763 14 726 q 94 800 54 800 q 172 736 150 800 l 175 736 l 175 792 l 308 792 l 308 -78 m 147 138 q 161 117 147 117 q 175 138 175 117 l 175 654 q 161 675 175 675 q 147 654 147 675 l 147 138 m 110 985 l 221 985 l 221 846 l 110 846 l 110 985 z "},"Ģ":{"ha":333,"x_min":14,"x_max":319,"o":"m 319 513 l 319 0 l 181 0 l 181 56 l 178 57 q 147 8 167 25 q 103 -8 128 -8 q 39 31 64 -8 q 14 144 14 71 l 14 828 q 58 940 14 900 q 168 981 101 981 q 277 941 235 981 q 319 828 319 901 l 319 604 l 181 604 l 181 835 q 167 856 181 856 q 153 835 153 856 l 153 132 q 167 111 153 111 q 181 132 181 111 l 181 388 l 167 388 l 167 513 l 319 513 m 121 -22 l 225 -22 l 225 -154 l 207 -229 l 160 -229 l 178 -154 l 121 -154 l 121 -22 z "},"ģ":{"ha":322,"x_min":14,"x_max":308,"o":"m 308 -78 q 267 -191 308 -151 q 161 -231 225 -231 q 56 -192 97 -231 q 14 -86 14 -153 l 14 -42 l 147 -42 l 147 -85 q 161 -106 147 -106 q 175 -85 175 -106 l 175 57 l 172 57 q 141 9 161 26 q 93 -8 121 -8 q 33 28 53 -8 q 14 144 14 65 l 14 647 q 34 763 14 726 q 94 800 54 800 q 172 736 150 800 l 175 736 l 175 792 l 308 792 l 308 -78 m 147 138 q 161 117 147 117 q 175 138 175 117 l 175 654 q 161 675 175 675 q 147 654 147 675 l 147 138 z "},"Ĥ":{"ha":333,"x_min":14,"x_max":319,"o":"m 319 0 l 181 0 l 181 422 l 153 422 l 153 0 l 14 0 l 14 972 l 153 972 l 153 547 l 181 547 l 181 972 l 319 972 l 319 0 m 63 1008 l 101 1183 l 232 1183 l 271 1008 l 182 1008 l 168 1100 l 165 1100 l 151 1008 l 63 1008 z "},"ĥ":{"ha":322,"x_min":-24,"x_max":308,"o":"m 175 654 q 161 675 175 675 q 147 654 147 675 l 147 0 l 14 0 l 14 1014 l 147 1014 l 147 736 l 150 735 q 228 800 172 800 q 288 763 268 800 q 308 647 308 726 l 308 0 l 175 0 l 175 654 m -24 1050 l 15 1225 l 146 1225 l 185 1050 l 96 1050 l 82 1142 l 79 1142 l 65 1050 l -24 1050 z "},"Ħ":{"ha":333,"x_min":1,"x_max":335,"o":"m 319 0 l 181 0 l 181 422 l 153 422 l 153 0 l 14 0 l 14 972 l 153 972 l 153 547 l 181 547 l 181 972 l 319 972 l 319 0 m 335 696 l 1 696 l 1 821 l 335 821 l 335 696 z "},"ħ":{"ha":322,"x_min":-17,"x_max":308,"o":"m 175 654 q 161 675 175 675 q 147 654 147 675 l 147 0 l 14 0 l 14 1014 l 147 1014 l 147 736 l 150 735 q 228 800 172 800 q 288 763 268 800 q 308 647 308 726 l 308 0 l 175 0 l 175 654 m 178 804 l -17 804 l -17 938 l 178 938 l 178 804 z "},"Ĩ":{"ha":167,"x_min":-25,"x_max":194,"o":"m 153 0 l 14 0 l 14 972 l 153 972 l 153 0 m 194 1165 q 183 1049 194 1083 q 143 1015 171 1015 q 115 1022 129 1015 q 86 1035 100 1028 q 60 1048 72 1042 q 39 1054 47 1054 q 19 1017 19 1054 l 19 1015 l -25 1015 l -25 1018 q -12 1132 -25 1096 q 28 1168 0 1168 q 54 1163 40 1168 q 81 1150 68 1157 q 107 1138 94 1143 q 129 1132 119 1132 q 151 1165 151 1132 l 151 1168 l 194 1168 l 194 1165 z "},"ĩ":{"ha":161,"x_min":-28,"x_max":192,"o":"m 14 792 l 147 792 l 147 0 l 14 0 l 14 792 m 192 985 q 180 869 192 903 q 140 835 168 835 q 112 841 126 835 q 83 854 97 847 q 57 867 69 861 q 36 874 44 874 q 17 836 17 874 l 17 835 l -28 835 l -28 838 q -15 951 -28 915 q 25 988 -3 988 q 51 982 38 988 q 78 969 65 976 q 104 957 92 963 q 126 951 117 951 q 149 985 149 951 l 149 988 l 192 988 l 192 985 z "},"Ī":{"ha":167,"x_min":-14,"x_max":181,"o":"m 153 0 l 14 0 l 14 972 l 153 972 l 153 0 m 181 1032 l -14 1032 l -14 1157 l 181 1157 l 181 1032 z "},"ī":{"ha":161,"x_min":-17,"x_max":178,"o":"m 14 792 l 147 792 l 147 0 l 14 0 l 14 792 m 178 851 l -17 851 l -17 976 l 178 976 l 178 851 z "},"Ĭ":{"ha":167,"x_min":-39,"x_max":206,"o":"m 153 0 l 14 0 l 14 972 l 153 972 l 153 0 m 58 1176 q 83 1125 58 1125 q 108 1176 108 1125 l 206 1176 q 175 1051 206 1088 q 83 1014 144 1014 q -8 1051 24 1014 q -39 1176 -39 1088 l 58 1176 z "},"ĭ":{"ha":161,"x_min":-42,"x_max":203,"o":"m 14 792 l 147 792 l 147 0 l 14 0 l 14 792 m 56 996 q 81 944 56 944 q 106 996 106 944 l 203 996 q 172 870 203 907 q 81 833 142 833 q -10 870 21 833 q -42 996 -42 907 l 56 996 z "},"Į":{"ha":167,"x_min":-4,"x_max":153,"o":"m 153 0 l 14 0 l 14 972 l 153 972 l 153 0 m 151 0 q 103 -14 125 0 q 82 -44 82 -28 q 97 -63 82 -58 q 128 -68 111 -68 q 151 -65 138 -68 l 151 -176 q 104 -181 126 -181 q 23 -156 50 -181 q -4 -100 -4 -132 q 6 -61 -4 -81 q 35 -26 15 -42 q 83 -1 54 -11 q 151 8 113 8 l 151 0 z "},"į":{"ha":161,"x_min":-10,"x_max":147,"o":"m 14 972 l 147 972 l 147 819 l 14 819 l 14 972 m 14 792 l 147 792 l 147 0 l 14 0 l 14 792 m 146 0 q 98 -14 119 0 q 76 -44 76 -28 q 91 -63 76 -58 q 122 -68 106 -68 q 146 -65 132 -68 l 146 -176 q 99 -181 121 -181 q 17 -156 44 -181 q -10 -100 -10 -132 q 0 -61 -10 -81 q 29 -26 10 -42 q 78 -1 49 -11 q 146 8 107 8 l 146 0 z "},"İ":{"ha":167,"x_min":14,"x_max":153,"o":"m 153 0 l 14 0 l 14 972 l 153 972 l 153 0 m 28 1165 l 139 1165 l 139 1026 l 28 1026 l 28 1165 z "},"Ĳ":{"ha":500,"x_min":14,"x_max":486,"o":"m 153 0 l 14 0 l 14 972 l 153 972 l 153 0 m 486 144 q 443 31 486 71 q 333 -8 400 -8 q 224 31 267 -8 q 181 144 181 71 l 181 411 l 319 411 l 319 138 q 333 117 319 117 q 347 138 347 117 l 347 972 l 486 972 l 486 144 z "},"ĳ":{"ha":324,"x_min":14,"x_max":310,"o":"m 14 972 l 147 972 l 147 819 l 14 819 l 14 972 m 14 792 l 147 792 l 147 0 l 14 0 l 14 792 m 310 819 l 176 819 l 176 972 l 310 972 l 310 819 m 310 -67 q 304 -160 310 -126 q 283 -211 299 -194 q 239 -232 268 -228 q 163 -236 210 -236 l 135 -236 l 135 -117 q 172 -110 167 -117 q 176 -85 176 -104 l 176 792 l 310 792 l 310 -67 z "},"Ĵ":{"ha":333,"x_min":14,"x_max":354,"o":"m 319 144 q 276 31 319 71 q 167 -8 233 -8 q 57 31 100 -8 q 14 144 14 71 l 14 411 l 153 411 l 153 138 q 167 117 153 117 q 181 138 181 117 l 181 972 l 319 972 l 319 144 m 146 1008 l 185 1183 l 315 1183 l 354 1008 l 265 1008 l 251 1100 l 249 1100 l 235 1008 l 146 1008 z "},"ĵ":{"ha":163,"x_min":-26,"x_max":186,"o":"m 149 -67 q 143 -160 149 -126 q 122 -211 138 -194 q 78 -232 107 -228 q 1 -236 49 -236 l -26 -236 l -26 -117 q 10 -110 6 -117 q 15 -85 15 -104 l 15 792 l 149 792 l 149 -67 m -22 828 l 17 1003 l 147 1003 l 186 828 l 97 828 l 83 919 l 81 919 l 67 828 l -22 828 z "},"Ķ":{"ha":350,"x_min":14,"x_max":350,"o":"m 272 528 l 272 525 l 350 0 l 207 0 l 156 447 l 153 447 l 153 0 l 14 0 l 14 972 l 153 972 l 153 579 l 156 579 l 207 972 l 350 972 l 272 528 m 128 -22 l 232 -22 l 232 -154 l 214 -229 l 167 -229 l 185 -154 l 128 -154 l 128 -22 z "},"ķ":{"ha":339,"x_min":14,"x_max":339,"o":"m 261 432 l 261 429 l 338 0 l 200 0 l 150 376 l 147 376 l 147 0 l 14 0 l 14 1015 l 147 1015 l 147 463 l 150 463 l 201 793 l 339 793 l 261 432 m 122 -22 l 226 -22 l 226 -154 l 208 -229 l 161 -229 l 179 -154 l 122 -154 l 122 -22 z "},"ĸ":{"ha":339,"x_min":14,"x_max":339,"o":"m 261 432 l 261 429 l 338 0 l 200 0 l 150 376 l 147 376 l 147 0 l 14 0 l 14 793 l 147 793 l 147 463 l 150 463 l 201 793 l 339 793 l 261 432 z "},"Ĺ":{"ha":218,"x_min":14,"x_max":211,"o":"m 153 972 l 153 125 l 211 125 l 211 0 l 14 0 l 14 972 l 153 972 m 40 1008 l 58 1183 l 169 1183 l 129 1008 l 40 1008 z "},"ĺ":{"ha":161,"x_min":14,"x_max":168,"o":"m 14 1014 l 147 1014 l 147 0 l 14 0 l 14 1014 m 39 1050 l 57 1225 l 168 1225 l 128 1050 l 39 1050 z "},"Ļ":{"ha":218,"x_min":14,"x_max":211,"o":"m 153 972 l 153 125 l 211 125 l 211 0 l 14 0 l 14 972 l 153 972 m 61 -22 l 165 -22 l 165 -154 l 147 -229 l 100 -229 l 118 -154 l 61 -154 l 61 -22 z "},"ļ":{"ha":161,"x_min":14,"x_max":147,"o":"m 14 1014 l 147 1014 l 147 0 l 14 0 l 14 1014 m 29 -22 l 133 -22 l 133 -154 l 115 -229 l 68 -229 l 86 -154 l 29 -154 l 29 -22 z "},"Ľ":{"ha":218,"x_min":14,"x_max":286,"o":"m 153 972 l 153 125 l 211 125 l 211 0 l 14 0 l 14 972 l 153 972 m 181 972 l 286 972 l 250 810 l 172 810 l 181 972 z "},"ľ":{"ha":282,"x_min":14,"x_max":282,"o":"m 14 1014 l 147 1014 l 147 0 l 14 0 l 14 1014 m 176 1014 l 282 1014 l 246 851 l 168 851 l 176 1014 z "},"Ŀ":{"ha":286,"x_min":14,"x_max":279,"o":"m 153 972 l 153 125 l 211 125 l 211 0 l 14 0 l 14 972 l 153 972 z "},"ŀ":{"ha":300,"x_min":14,"x_max":286,"o":"m 14 1014 l 147 1014 l 147 0 l 14 0 l 14 1014 z "},"Ń":{"ha":404,"x_min":14,"x_max":389,"o":"m 389 0 l 215 0 l 119 750 l 117 750 l 139 438 l 146 0 l 14 0 l 14 972 l 188 972 l 283 222 l 286 222 l 264 535 l 257 972 l 389 972 l 389 0 m 160 1008 l 178 1183 l 289 1183 l 249 1008 l 160 1008 z "},"ń":{"ha":322,"x_min":14,"x_max":308,"o":"m 175 654 q 161 675 175 675 q 147 654 147 675 l 147 0 l 14 0 l 14 792 l 147 792 l 147 736 l 150 735 q 228 800 172 800 q 288 763 268 800 q 308 647 308 726 l 308 0 l 175 0 l 175 654 m 119 828 l 138 1003 l 249 1003 l 208 828 l 119 828 z "},"Ņ":{"ha":404,"x_min":14,"x_max":389,"o":"m 389 0 l 215 0 l 119 750 l 117 750 l 139 438 l 146 0 l 14 0 l 14 972 l 188 972 l 283 222 l 286 222 l 264 535 l 257 972 l 389 972 l 389 0 m 150 -22 l 254 -22 l 254 -154 l 236 -229 l 189 -229 l 207 -154 l 150 -154 l 150 -22 z "},"ņ":{"ha":322,"x_min":14,"x_max":308,"o":"m 175 654 q 161 675 175 675 q 147 654 147 675 l 147 0 l 14 0 l 14 792 l 147 792 l 147 736 l 150 735 q 228 800 172 800 q 288 763 268 800 q 308 647 308 726 l 308 0 l 175 0 l 175 654 m 110 -22 l 214 -22 l 214 -154 l 196 -229 l 149 -229 l 167 -154 l 110 -154 l 110 -22 z "},"Ň":{"ha":404,"x_min":14,"x_max":389,"o":"m 389 0 l 215 0 l 119 750 l 117 750 l 139 438 l 146 0 l 14 0 l 14 972 l 188 972 l 283 222 l 286 222 l 264 535 l 257 972 l 389 972 l 389 0 m 313 1183 l 274 1008 l 143 1008 l 104 1183 l 193 1183 l 207 1092 l 210 1092 l 224 1183 l 313 1183 z "},"ň":{"ha":322,"x_min":14,"x_max":308,"o":"m 175 654 q 161 675 175 675 q 147 654 147 675 l 147 0 l 14 0 l 14 792 l 147 792 l 147 736 l 150 735 q 228 800 172 800 q 288 763 268 800 q 308 647 308 726 l 308 0 l 175 0 l 175 654 m 272 1003 l 233 828 l 103 828 l 64 1003 l 153 1003 l 167 911 l 169 911 l 183 1003 l 272 1003 z "},"ŉ":{"ha":492,"x_min":28,"x_max":464,"o":"m 28 972 l 464 972 l 464 0 l 28 0 l 28 972 m 246 586 l 351 889 l 138 889 l 246 586 m 381 207 l 381 774 l 281 488 l 381 207 m 111 199 l 211 488 l 111 769 l 111 199 m 140 83 l 356 83 l 247 389 l 140 83 z "},"Ŋ":{"ha":464,"x_min":14,"x_max":450,"o":"m 14 972 l 450 972 l 450 0 l 14 0 l 14 972 m 232 586 l 338 889 l 124 889 l 232 586 m 367 207 l 367 774 l 267 488 l 367 207 m 97 199 l 197 488 l 97 769 l 97 199 m 126 83 l 342 83 l 233 389 l 126 83 z "},"ŋ":{"ha":464,"x_min":14,"x_max":450,"o":"m 14 972 l 450 972 l 450 0 l 14 0 l 14 972 m 232 586 l 338 889 l 124 889 l 232 586 m 367 207 l 367 774 l 267 488 l 367 207 m 97 199 l 197 488 l 97 769 l 97 199 m 126 83 l 342 83 l 233 389 l 126 83 z "},"Ō":{"ha":333,"x_min":14,"x_max":319,"o":"m 319 144 q 276 31 319 71 q 167 -8 233 -8 q 57 31 100 -8 q 14 144 14 71 l 14 828 q 58 940 14 900 q 168 981 101 981 q 277 941 235 981 q 319 828 319 901 l 319 144 m 181 835 q 167 856 181 856 q 153 835 153 856 l 153 138 q 167 117 153 117 q 181 138 181 117 l 181 835 m 265 1032 l 71 1032 l 71 1157 l 265 1157 l 265 1032 z "},"ō":{"ha":322,"x_min":14,"x_max":308,"o":"m 308 144 q 267 31 308 71 q 161 -8 225 -8 q 56 31 97 -8 q 14 144 14 71 l 14 647 q 56 760 14 719 q 163 800 99 800 q 267 760 226 800 q 308 647 308 721 l 308 144 m 175 654 q 161 675 175 675 q 147 654 147 675 l 147 138 q 161 117 147 117 q 175 138 175 117 l 175 654 m 260 851 l 65 851 l 65 976 l 260 976 l 260 851 z "},"Ŏ":{"ha":333,"x_min":14,"x_max":319,"o":"m 319 144 q 276 31 319 71 q 167 -8 233 -8 q 57 31 100 -8 q 14 144 14 71 l 14 828 q 58 940 14 900 q 168 981 101 981 q 277 941 235 981 q 319 828 319 901 l 319 144 m 181 835 q 167 856 181 856 q 153 835 153 856 l 153 138 q 167 117 153 117 q 181 138 181 117 l 181 835 m 143 1176 q 168 1125 143 1125 q 193 1176 193 1125 l 290 1176 q 260 1051 290 1088 q 168 1014 229 1014 q 77 1051 108 1014 q 46 1176 46 1088 l 143 1176 z "},"ŏ":{"ha":322,"x_min":14,"x_max":308,"o":"m 308 144 q 267 31 308 71 q 161 -8 225 -8 q 56 31 97 -8 q 14 144 14 71 l 14 647 q 56 760 14 719 q 163 800 99 800 q 267 760 226 800 q 308 647 308 721 l 308 144 m 175 654 q 161 675 175 675 q 147 654 147 675 l 147 138 q 161 117 147 117 q 175 138 175 117 l 175 654 m 138 996 q 163 944 138 944 q 188 996 188 944 l 285 996 q 254 870 285 907 q 163 833 224 833 q 72 870 103 833 q 40 996 40 907 l 138 996 z "},"Ő":{"ha":333,"x_min":14,"x_max":319,"o":"m 319 144 q 276 31 319 71 q 167 -8 233 -8 q 57 31 100 -8 q 14 144 14 71 l 14 828 q 58 940 14 900 q 168 981 101 981 q 277 941 235 981 q 319 828 319 901 l 319 144 m 181 835 q 167 856 181 856 q 153 835 153 856 l 153 138 q 167 117 153 117 q 181 138 181 117 l 181 835 z "},"ő":{"ha":322,"x_min":14,"x_max":311,"o":"m 308 144 q 267 31 308 71 q 161 -8 225 -8 q 56 31 97 -8 q 14 144 14 71 l 14 647 q 56 760 14 719 q 163 800 99 800 q 267 760 226 800 q 308 647 308 721 l 308 144 m 175 654 q 161 675 175 675 q 147 654 147 675 l 147 138 q 161 117 147 117 q 175 138 175 117 l 175 654 z "},"Ŕ":{"ha":333,"x_min":14,"x_max":336,"o":"m 181 410 q 167 431 181 431 l 153 431 l 153 0 l 14 0 l 14 972 l 168 972 q 282 940 244 972 q 319 833 319 907 l 319 636 q 318 582 319 606 q 310 541 317 558 q 292 513 304 524 q 261 494 281 501 l 261 492 q 310 446 301 479 q 319 350 319 413 l 319 128 q 320 88 319 104 q 322 58 321 72 q 327 32 324 44 q 336 3 331 19 l 336 0 l 193 0 q 183 53 186 28 q 181 126 181 79 l 181 410 m 181 826 q 167 847 181 847 l 153 847 l 153 556 l 167 556 q 181 576 181 556 l 181 826 m 97 1008 l 115 1183 l 226 1183 l 186 1008 l 97 1008 z "},"ŕ":{"ha":322,"x_min":14,"x_max":308,"o":"m 175 654 q 161 675 175 675 q 147 654 147 675 l 147 0 l 14 0 l 14 792 l 147 792 l 147 736 l 150 735 q 228 800 172 800 q 288 763 268 800 q 308 647 308 726 l 308 467 l 175 467 l 175 654 m 119 828 l 138 1003 l 249 1003 l 208 828 l 119 828 z "},"Ŗ":{"ha":333,"x_min":14,"x_max":336,"o":"m 181 410 q 167 431 181 431 l 153 431 l 153 0 l 14 0 l 14 972 l 168 972 q 282 940 244 972 q 319 833 319 907 l 319 636 q 318 582 319 606 q 310 541 317 558 q 292 513 304 524 q 261 494 281 501 l 261 492 q 310 446 301 479 q 319 350 319 413 l 319 128 q 320 88 319 104 q 322 58 321 72 q 327 32 324 44 q 336 3 331 19 l 336 0 l 193 0 q 183 53 186 28 q 181 126 181 79 l 181 410 m 181 826 q 167 847 181 847 l 153 847 l 153 556 l 167 556 q 181 576 181 556 l 181 826 m 124 -22 l 228 -22 l 228 -154 l 210 -229 l 163 -229 l 181 -154 l 124 -154 l 124 -22 z "},"ŗ":{"ha":322,"x_min":14,"x_max":308,"o":"m 175 654 q 161 675 175 675 q 147 654 147 675 l 147 0 l 14 0 l 14 792 l 147 792 l 147 736 l 150 735 q 228 800 172 800 q 288 763 268 800 q 308 647 308 726 l 308 467 l 175 467 l 175 654 m 29 -22 l 133 -22 l 133 -154 l 115 -229 l 68 -229 l 86 -154 l 29 -154 l 29 -22 z "},"Ř":{"ha":333,"x_min":14,"x_max":336,"o":"m 181 410 q 167 431 181 431 l 153 431 l 153 0 l 14 0 l 14 972 l 168 972 q 282 940 244 972 q 319 833 319 907 l 319 636 q 318 582 319 606 q 310 541 317 558 q 292 513 304 524 q 261 494 281 501 l 261 492 q 310 446 301 479 q 319 350 319 413 l 319 128 q 320 88 319 104 q 322 58 321 72 q 327 32 324 44 q 336 3 331 19 l 336 0 l 193 0 q 183 53 186 28 q 181 126 181 79 l 181 410 m 181 826 q 167 847 181 847 l 153 847 l 153 556 l 167 556 q 181 576 181 556 l 181 826 m 250 1183 l 211 1008 l 81 1008 l 42 1183 l 131 1183 l 144 1092 l 147 1092 l 161 1183 l 250 1183 z "},"ř":{"ha":322,"x_min":14,"x_max":308,"o":"m 175 654 q 161 675 175 675 q 147 654 147 675 l 147 0 l 14 0 l 14 792 l 147 792 l 147 736 l 150 735 q 228 800 172 800 q 288 763 268 800 q 308 647 308 726 l 308 467 l 175 467 l 175 654 m 272 1003 l 233 828 l 103 828 l 64 1003 l 153 1003 l 167 911 l 169 911 l 183 1003 l 272 1003 z "},"Ś":{"ha":328,"x_min":11,"x_max":317,"o":"m 317 144 q 274 31 317 71 q 164 -8 231 -8 q 54 31 97 -8 q 11 144 11 71 l 11 342 l 150 342 l 150 138 q 164 117 150 117 q 178 138 178 117 l 178 299 q 155 387 178 343 q 104 478 132 431 q 41 591 71 532 q 11 717 11 650 l 11 828 q 55 940 11 900 q 165 981 99 981 q 274 941 232 981 q 317 828 317 901 l 317 674 l 178 674 l 178 835 q 164 856 178 856 q 150 835 150 856 l 150 717 q 173 628 150 672 q 225 538 196 585 q 288 424 258 483 q 317 299 317 365 l 317 144 m 124 1008 l 142 1183 l 253 1183 l 213 1008 l 124 1008 z "},"ś":{"ha":317,"x_min":11,"x_max":306,"o":"m 306 144 q 264 31 306 71 q 158 -8 222 -8 q 53 31 94 -8 q 11 144 11 71 l 11 279 l 144 279 l 144 138 q 158 117 144 117 q 172 138 172 117 l 172 260 q 152 318 172 289 q 106 379 132 347 q 42 463 72 418 q 11 568 11 508 l 11 647 q 53 760 11 719 q 160 800 96 800 q 265 760 224 800 q 306 647 306 721 l 306 550 l 172 550 l 172 654 q 158 675 172 675 q 144 654 144 675 l 144 568 q 165 508 144 536 q 213 449 185 479 q 276 364 246 410 q 306 260 306 318 l 306 144 m 118 828 l 136 1003 l 247 1003 l 207 828 l 118 828 z "},"Ŝ":{"ha":328,"x_min":11,"x_max":317,"o":"m 317 144 q 274 31 317 71 q 164 -8 231 -8 q 54 31 97 -8 q 11 144 11 71 l 11 342 l 150 342 l 150 138 q 164 117 150 117 q 178 138 178 117 l 178 299 q 155 387 178 343 q 104 478 132 431 q 41 591 71 532 q 11 717 11 650 l 11 828 q 55 940 11 900 q 165 981 99 981 q 274 941 232 981 q 317 828 317 901 l 317 674 l 178 674 l 178 835 q 164 856 178 856 q 150 835 150 856 l 150 717 q 173 628 150 672 q 225 538 196 585 q 288 424 258 483 q 317 299 317 365 l 317 144 m 61 1008 l 100 1183 l 231 1183 l 269 1008 l 181 1008 l 167 1100 l 164 1100 l 150 1008 l 61 1008 z "},"ŝ":{"ha":317,"x_min":11,"x_max":306,"o":"m 306 144 q 264 31 306 71 q 158 -8 222 -8 q 53 31 94 -8 q 11 144 11 71 l 11 279 l 144 279 l 144 138 q 158 117 144 117 q 172 138 172 117 l 172 260 q 152 318 172 289 q 106 379 132 347 q 42 463 72 418 q 11 568 11 508 l 11 647 q 53 760 11 719 q 160 800 96 800 q 265 760 224 800 q 306 647 306 721 l 306 550 l 172 550 l 172 654 q 158 675 172 675 q 144 654 144 675 l 144 568 q 165 508 144 536 q 213 449 185 479 q 276 364 246 410 q 306 260 306 318 l 306 144 m 56 828 l 94 1003 l 225 1003 l 264 828 l 175 828 l 161 919 l 158 919 l 144 828 l 56 828 z "},"Ş":{"ha":328,"x_min":11,"x_max":317,"o":"m 317 144 q 274 31 317 71 q 164 -8 231 -8 q 54 31 97 -8 q 11 144 11 71 l 11 342 l 150 342 l 150 138 q 164 117 150 117 q 178 138 178 117 l 178 299 q 155 387 178 343 q 104 478 132 431 q 41 591 71 532 q 11 717 11 650 l 11 828 q 55 940 11 900 q 165 981 99 981 q 274 941 232 981 q 317 828 317 901 l 317 674 l 178 674 l 178 835 q 164 856 178 856 q 150 835 150 856 l 150 717 q 173 628 150 672 q 225 538 196 585 q 288 424 258 483 q 317 299 317 365 l 317 144 m 204 6 l 193 -29 q 263 -52 235 -29 q 292 -110 292 -75 q 254 -172 292 -149 q 156 -196 217 -196 q 126 -194 142 -196 q 94 -189 111 -192 l 94 -106 q 119 -110 108 -108 q 142 -112 131 -112 q 192 -89 192 -112 q 173 -68 192 -75 q 125 -61 154 -61 l 139 6 l 204 6 z "},"ş":{"ha":317,"x_min":11,"x_max":306,"o":"m 306 144 q 264 31 306 71 q 158 -8 222 -8 q 53 31 94 -8 q 11 144 11 71 l 11 279 l 144 279 l 144 138 q 158 117 144 117 q 172 138 172 117 l 172 260 q 152 318 172 289 q 106 379 132 347 q 42 463 72 418 q 11 568 11 508 l 11 647 q 53 760 11 719 q 160 800 96 800 q 265 760 224 800 q 306 647 306 721 l 306 550 l 172 550 l 172 654 q 158 675 172 675 q 144 654 144 675 l 144 568 q 165 508 144 536 q 213 449 185 479 q 276 364 246 410 q 306 260 306 318 l 306 144 m 199 6 l 188 -29 q 258 -52 229 -29 q 286 -110 286 -75 q 249 -172 286 -149 q 150 -196 211 -196 q 121 -194 136 -196 q 89 -189 106 -192 l 89 -106 q 114 -110 103 -108 q 136 -112 125 -112 q 186 -89 186 -112 q 167 -68 186 -75 q 119 -61 149 -61 l 133 6 l 199 6 z "},"Ţ":{"ha":292,"x_min":7,"x_max":285,"o":"m 285 847 l 215 847 l 215 0 l 76 0 l 76 847 l 7 847 l 7 972 l 285 972 l 285 847 m 186 6 l 175 -29 q 245 -52 217 -29 q 274 -110 274 -75 q 236 -172 274 -149 q 138 -196 199 -196 q 108 -194 124 -196 q 76 -189 93 -192 l 76 -106 q 101 -110 90 -108 q 124 -112 113 -112 q 174 -89 174 -112 q 155 -68 174 -75 q 107 -61 136 -61 l 121 6 l 186 6 z "},"ţ":{"ha":224,"x_min":7,"x_max":263,"o":"m 168 944 l 168 792 l 217 792 l 217 672 l 168 672 l 168 153 q 175 126 168 133 q 217 119 182 119 l 217 0 l 182 0 q 104 3 133 0 q 60 19 75 6 q 40 63 44 33 q 35 143 35 92 l 35 672 l 7 672 l 7 792 l 35 792 l 35 944 l 168 944 m 175 6 l 164 -29 q 234 -52 206 -29 q 263 -110 263 -75 q 225 -172 263 -149 q 126 -196 188 -196 q 97 -194 113 -196 q 65 -189 82 -192 l 65 -106 q 90 -110 79 -108 q 113 -112 101 -112 q 163 -89 163 -112 q 144 -68 163 -75 q 96 -61 125 -61 l 110 6 l 175 6 z "},"Ť":{"ha":292,"x_min":7,"x_max":285,"o":"m 285 847 l 215 847 l 215 0 l 76 0 l 76 847 l 7 847 l 7 972 l 285 972 l 285 847 m 257 1183 l 218 1008 l 88 1008 l 49 1183 l 138 1183 l 151 1092 l 154 1092 l 168 1183 l 257 1183 z "},"ť":{"ha":294,"x_min":7,"x_max":294,"o":"m 168 944 l 168 792 l 217 792 l 217 672 l 168 672 l 168 153 q 175 126 168 133 q 217 119 182 119 l 217 0 l 182 0 q 104 3 133 0 q 60 19 75 6 q 40 63 44 33 q 35 143 35 92 l 35 672 l 7 672 l 7 792 l 35 792 l 35 944 l 168 944 m 189 1014 l 294 1014 l 258 851 l 181 851 l 189 1014 z "},"Ŧ":{"ha":292,"x_min":7,"x_max":285,"o":"m 285 847 l 215 847 l 215 0 l 76 0 l 76 847 l 7 847 l 7 972 l 285 972 l 285 847 m 243 358 l 49 358 l 49 492 l 243 492 l 243 358 z "},"ŧ":{"ha":224,"x_min":7,"x_max":217,"o":"m 168 944 l 168 792 l 217 792 l 217 672 l 168 672 l 168 153 q 175 126 168 133 q 217 119 182 119 l 217 0 l 182 0 q 104 3 133 0 q 60 19 75 6 q 40 63 44 33 q 35 143 35 92 l 35 672 l 7 672 l 7 792 l 35 792 l 35 944 l 168 944 m 217 503 l 7 503 l 7 636 l 217 636 l 217 503 z "},"Ũ":{"ha":333,"x_min":14,"x_max":319,"o":"m 319 144 q 276 31 319 71 q 167 -8 233 -8 q 57 31 100 -8 q 14 144 14 71 l 14 972 l 153 972 l 153 138 q 167 117 153 117 q 181 138 181 117 l 181 972 l 319 972 l 319 144 m 278 1165 q 266 1049 278 1083 q 226 1015 254 1015 q 198 1022 213 1015 q 169 1035 183 1028 q 143 1048 156 1042 q 122 1054 131 1054 q 103 1017 103 1054 l 103 1015 l 58 1015 l 58 1018 q 71 1132 58 1096 q 111 1168 83 1168 q 138 1163 124 1168 q 165 1150 151 1157 q 190 1138 178 1143 q 213 1132 203 1132 q 235 1165 235 1132 l 235 1168 l 278 1168 l 278 1165 z "},"ũ":{"ha":322,"x_min":14,"x_max":308,"o":"m 147 138 q 161 117 147 117 q 175 138 175 117 l 175 792 l 308 792 l 308 0 l 175 0 l 175 56 l 172 57 q 94 -8 150 -8 q 34 28 54 -8 q 14 144 14 65 l 14 792 l 147 792 l 147 138 m 272 985 q 260 869 272 903 q 221 835 249 835 q 192 841 207 835 q 164 854 178 847 q 138 867 150 861 q 117 874 125 874 q 97 836 97 874 l 97 835 l 53 835 l 53 838 q 65 951 53 915 q 106 988 78 988 q 132 982 118 988 q 159 969 146 976 q 185 957 172 963 q 207 951 197 951 q 229 985 229 951 l 229 988 l 272 988 l 272 985 z "},"Ū":{"ha":333,"x_min":14,"x_max":319,"o":"m 319 144 q 276 31 319 71 q 167 -8 233 -8 q 57 31 100 -8 q 14 144 14 71 l 14 972 l 153 972 l 153 138 q 167 117 153 117 q 181 138 181 117 l 181 972 l 319 972 l 319 144 m 264 1032 l 69 1032 l 69 1157 l 264 1157 l 264 1032 z "},"ū":{"ha":322,"x_min":14,"x_max":308,"o":"m 147 138 q 161 117 147 117 q 175 138 175 117 l 175 792 l 308 792 l 308 0 l 175 0 l 175 56 l 172 57 q 94 -8 150 -8 q 34 28 54 -8 q 14 144 14 65 l 14 792 l 147 792 l 147 138 m 258 851 l 64 851 l 64 976 l 258 976 l 258 851 z "},"Ŭ":{"ha":333,"x_min":14,"x_max":319,"o":"m 319 144 q 276 31 319 71 q 167 -8 233 -8 q 57 31 100 -8 q 14 144 14 71 l 14 972 l 153 972 l 153 138 q 167 117 153 117 q 181 138 181 117 l 181 972 l 319 972 l 319 144 m 142 1176 q 167 1125 142 1125 q 192 1176 192 1125 l 289 1176 q 258 1051 289 1088 q 167 1014 228 1014 q 76 1051 107 1014 q 44 1176 44 1088 l 142 1176 z "},"ŭ":{"ha":322,"x_min":14,"x_max":308,"o":"m 147 138 q 161 117 147 117 q 175 138 175 117 l 175 792 l 308 792 l 308 0 l 175 0 l 175 56 l 172 57 q 94 -8 150 -8 q 34 28 54 -8 q 14 144 14 65 l 14 792 l 147 792 l 147 138 m 136 996 q 161 944 136 944 q 186 996 186 944 l 283 996 q 253 870 283 907 q 161 833 222 833 q 70 870 101 833 q 39 996 39 907 l 136 996 z "},"Ů":{"ha":333,"x_min":14,"x_max":319,"o":"m 319 144 q 276 31 319 71 q 167 -8 233 -8 q 57 31 100 -8 q 14 144 14 71 l 14 972 l 153 972 l 153 138 q 167 117 153 117 q 181 138 181 117 l 181 972 l 319 972 l 319 144 m 69 1096 q 167 1190 69 1190 q 238 1166 213 1190 q 263 1094 263 1142 q 167 1000 263 1000 q 69 1096 69 1000 m 138 1094 q 167 1067 138 1067 q 194 1094 194 1067 q 167 1124 194 1124 q 138 1094 138 1124 z "},"ů":{"ha":322,"x_min":14,"x_max":308,"o":"m 147 138 q 161 117 147 117 q 175 138 175 117 l 175 792 l 308 792 l 308 0 l 175 0 l 175 56 l 172 57 q 94 -8 150 -8 q 34 28 54 -8 q 14 144 14 65 l 14 792 l 147 792 l 147 138 m 64 915 q 161 1010 64 1010 q 232 985 207 1010 q 257 914 257 961 q 161 819 257 819 q 64 915 64 819 m 132 914 q 161 886 132 886 q 189 914 189 886 q 161 943 189 943 q 132 914 132 943 z "},"Ű":{"ha":333,"x_min":14,"x_max":319,"o":"m 319 144 q 276 31 319 71 q 167 -8 233 -8 q 57 31 100 -8 q 14 144 14 71 l 14 972 l 153 972 l 153 138 q 167 117 153 117 q 181 138 181 117 l 181 972 l 319 972 l 319 144 z "},"ű":{"ha":322,"x_min":14,"x_max":310,"o":"m 147 138 q 161 117 147 117 q 175 138 175 117 l 175 792 l 308 792 l 308 0 l 175 0 l 175 56 l 172 57 q 94 -8 150 -8 q 34 28 54 -8 q 14 144 14 65 l 14 792 l 147 792 l 147 138 z "},"Ų":{"ha":333,"x_min":14,"x_max":319,"o":"m 319 144 q 276 31 319 71 q 167 -8 233 -8 q 57 31 100 -8 q 14 144 14 71 l 14 972 l 153 972 l 153 138 q 167 117 153 117 q 181 138 181 117 l 181 972 l 319 972 l 319 144 m 197 -7 q 171 -24 182 -14 q 160 -44 160 -33 q 174 -63 160 -58 q 206 -68 189 -68 q 229 -65 215 -68 l 229 -176 q 186 -181 204 -181 q 103 -153 133 -181 q 74 -89 74 -125 q 101 -30 74 -57 q 193 6 129 -3 l 197 -7 z "},"ų":{"ha":322,"x_min":14,"x_max":308,"o":"m 147 138 q 161 117 147 117 q 175 138 175 117 l 175 792 l 308 792 l 308 0 l 175 0 l 175 56 l 172 57 q 94 -8 150 -8 q 34 28 54 -8 q 14 144 14 65 l 14 792 l 147 792 l 147 138 m 307 0 q 259 -14 281 0 q 238 -44 238 -28 q 252 -63 238 -58 q 283 -68 267 -68 q 307 -65 293 -68 l 307 -176 q 260 -181 282 -181 q 178 -156 206 -181 q 151 -100 151 -132 q 161 -61 151 -81 q 190 -26 171 -42 q 239 -1 210 -11 q 307 8 268 8 l 307 0 z "},"Ŵ":{"ha":540,"x_min":0,"x_max":540,"o":"m 489 0 l 301 0 l 278 665 l 275 818 l 272 818 l 269 665 l 246 0 l 58 0 l 0 972 l 160 972 l 161 321 l 161 153 l 164 153 l 169 321 l 200 972 l 347 972 l 378 321 l 383 153 l 386 153 l 388 321 l 388 972 l 540 972 l 489 0 m 171 1008 l 210 1183 l 340 1183 l 379 1008 l 290 1008 l 276 1100 l 274 1100 l 260 1008 l 171 1008 z "},"ŵ":{"ha":547,"x_min":0,"x_max":547,"o":"m 547 792 l 485 0 l 301 0 l 279 514 l 275 639 l 272 639 l 268 514 l 246 0 l 63 0 l 0 792 l 147 792 l 158 275 l 160 153 l 163 153 l 168 275 l 203 792 l 344 792 l 379 275 l 385 153 l 388 153 l 389 276 l 400 792 l 547 792 m 168 828 l 207 1003 l 338 1003 l 376 828 l 288 828 l 274 919 l 271 919 l 257 828 l 168 828 z "},"Ŷ":{"ha":339,"x_min":0,"x_max":339,"o":"m 239 319 l 239 0 l 100 0 l 100 319 l 0 972 l 142 972 l 163 638 l 168 499 l 171 499 l 176 638 l 197 972 l 339 972 l 239 319 m 65 1008 l 104 1183 l 235 1183 l 274 1008 l 185 1008 l 171 1100 l 168 1100 l 154 1008 l 65 1008 z "},"ŷ":{"ha":331,"x_min":-3,"x_max":332,"o":"m 165 364 l 171 226 l 172 226 l 178 364 l 199 790 l 332 790 l 200 -222 l 67 -222 l 97 0 l -3 790 l 144 790 l 165 364 m 61 828 l 100 1003 l 231 1003 l 269 828 l 181 828 l 167 919 l 164 919 l 150 828 l 61 828 z "},"Ź":{"ha":271,"x_min":7,"x_max":264,"o":"m 264 847 l 149 125 l 263 125 l 263 0 l 7 0 l 7 125 l 122 847 l 14 847 l 14 972 l 264 972 l 264 847 m 99 1008 l 117 1183 l 228 1183 l 188 1008 l 99 1008 z "},"ź":{"ha":265,"x_min":7,"x_max":258,"o":"m 258 672 l 143 119 l 257 119 l 257 0 l 7 0 l 7 100 l 122 672 l 14 672 l 14 792 l 258 792 l 258 672 m 92 828 l 110 1003 l 221 1003 l 181 828 l 92 828 z "},"Ż":{"ha":271,"x_min":7,"x_max":264,"o":"m 264 847 l 149 125 l 263 125 l 263 0 l 7 0 l 7 125 l 122 847 l 14 847 l 14 972 l 264 972 l 264 847 m 85 1165 l 196 1165 l 196 1026 l 85 1026 l 85 1165 z "},"ż":{"ha":265,"x_min":7,"x_max":258,"o":"m 258 672 l 143 119 l 257 119 l 257 0 l 7 0 l 7 100 l 122 672 l 14 672 l 14 792 l 258 792 l 258 672 m 78 985 l 189 985 l 189 846 l 78 846 l 78 985 z "},"ſ":{"ha":492,"x_min":28,"x_max":464,"o":"m 28 972 l 464 972 l 464 0 l 28 0 l 28 972 m 246 586 l 351 889 l 138 889 l 246 586 m 381 207 l 381 774 l 281 488 l 381 207 m 111 199 l 211 488 l 111 769 l 111 199 m 140 83 l 356 83 l 247 389 l 140 83 z "},"ȷ":{"ha":163,"x_min":-26,"x_max":149,"o":"m 149 -67 q 143 -160 149 -126 q 122 -211 138 -194 q 78 -232 107 -228 q 1 -236 49 -236 l -26 -236 l -26 -117 q 10 -110 6 -117 q 15 -85 15 -104 l 15 792 l 149 792 l 149 -67 z "},"Ǿ":{"ha":333,"x_min":14,"x_max":319,"o":"m 319 144 q 276 31 319 71 q 167 -8 233 -8 q 71 21 108 -8 l 63 -8 l 14 6 l 31 68 q 14 144 14 101 l 14 828 q 58 940 14 900 q 168 981 101 981 q 263 953 224 981 l 269 981 l 319 967 l 303 904 q 319 828 319 874 l 319 144 m 181 835 q 167 856 181 856 q 153 835 153 856 l 153 536 l 181 642 l 181 835 m 153 138 q 167 117 153 117 q 181 138 181 117 l 181 440 l 153 335 l 153 138 m 126 1008 l 144 1183 l 256 1183 l 215 1008 l 126 1008 z "},"Ș":{"ha":328,"x_min":11,"x_max":317,"o":"m 317 144 q 274 31 317 71 q 164 -8 231 -8 q 54 31 97 -8 q 11 144 11 71 l 11 342 l 150 342 l 150 138 q 164 117 150 117 q 178 138 178 117 l 178 299 q 155 387 178 343 q 104 478 132 431 q 41 591 71 532 q 11 717 11 650 l 11 828 q 55 940 11 900 q 165 981 99 981 q 274 941 232 981 q 317 828 317 901 l 317 674 l 178 674 l 178 835 q 164 856 178 856 q 150 835 150 856 l 150 717 q 173 628 150 672 q 225 538 196 585 q 288 424 258 483 q 317 299 317 365 l 317 144 m 113 -22 l 217 -22 l 217 -154 l 199 -229 l 151 -229 l 169 -154 l 113 -154 l 113 -22 z "},"Ț":{"ha":292,"x_min":7,"x_max":285,"o":"m 285 847 l 215 847 l 215 0 l 76 0 l 76 847 l 7 847 l 7 972 l 285 972 l 285 847 m 94 -22 l 199 -22 l 199 -154 l 181 -229 l 133 -229 l 151 -154 l 94 -154 l 94 -22 z "},"˝":{"ha":369,"x_min":28,"x_max":283,"o":"m 28 790 l 46 965 l 157 965 l 117 790 l 28 790 m 154 790 l 172 965 l 283 965 l 243 790 l 154 790 z "},"Ẃ":{"ha":540,"x_min":0,"x_max":540,"o":"m 489 0 l 301 0 l 278 665 l 275 818 l 272 818 l 269 665 l 246 0 l 58 0 l 0 972 l 160 972 l 161 321 l 161 153 l 164 153 l 169 321 l 200 972 l 347 972 l 378 321 l 383 153 l 386 153 l 388 321 l 388 972 l 540 972 l 489 0 m 233 1008 l 251 1183 l 363 1183 l 322 1008 l 233 1008 z "},"Ẁ":{"ha":540,"x_min":0,"x_max":540,"o":"m 489 0 l 301 0 l 278 665 l 275 818 l 272 818 l 269 665 l 246 0 l 58 0 l 0 972 l 160 972 l 161 321 l 161 153 l 164 153 l 169 321 l 200 972 l 347 972 l 378 321 l 383 153 l 386 153 l 388 321 l 388 972 l 540 972 l 489 0 m 188 1183 l 299 1183 l 317 1008 l 228 1008 l 188 1183 z "},"Ẅ":{"ha":540,"x_min":0,"x_max":540,"o":"m 489 0 l 301 0 l 278 665 l 275 818 l 272 818 l 269 665 l 246 0 l 58 0 l 0 972 l 160 972 l 161 321 l 161 153 l 164 153 l 169 321 l 200 972 l 347 972 l 378 321 l 383 153 l 386 153 l 388 321 l 388 972 l 540 972 l 489 0 m 178 1165 l 261 1165 l 261 1026 l 178 1026 l 178 1165 m 290 1165 l 374 1165 l 374 1026 l 290 1026 l 290 1165 z "},"Ỳ":{"ha":339,"x_min":0,"x_max":339,"o":"m 239 319 l 239 0 l 100 0 l 100 319 l 0 972 l 142 972 l 163 638 l 168 499 l 171 499 l 176 638 l 197 972 l 339 972 l 239 319 m 82 1183 l 193 1183 l 211 1008 l 122 1008 l 82 1183 z "},"Ǽ":{"ha":403,"x_min":0,"x_max":396,"o":"m 382 847 l 333 847 l 333 561 l 389 561 l 389 436 l 333 436 l 333 125 l 396 125 l 396 0 l 194 0 l 194 232 l 156 232 l 139 0 l 0 0 l 103 972 l 382 972 l 382 847 m 194 357 l 194 819 l 192 819 l 188 651 l 165 357 l 194 357 m 199 1008 l 217 1183 l 328 1183 l 288 1008 l 199 1008 z "},"ǽ":{"ha":483,"x_min":14,"x_max":469,"o":"m 178 100 q 147 20 171 49 q 83 -8 122 -8 q 31 21 47 -8 q 14 117 14 50 l 14 310 q 22 367 14 342 q 49 412 31 392 q 99 448 68 432 q 175 478 129 464 l 175 654 q 161 675 175 675 q 147 654 147 675 l 147 508 l 14 508 l 14 647 q 52 759 14 718 q 153 800 90 800 q 240 764 207 800 l 243 764 q 331 800 276 800 q 431 759 393 800 q 469 647 469 718 l 469 361 l 308 361 l 308 138 q 322 117 308 117 q 336 138 336 117 l 336 310 l 469 310 l 469 144 q 429 33 469 74 q 322 -8 389 -8 q 229 20 267 -8 q 181 100 192 49 l 178 100 m 336 654 q 322 675 336 675 q 308 654 308 675 l 308 486 l 336 486 l 336 654 m 175 367 q 147 286 147 354 l 147 136 q 161 117 147 117 q 175 138 175 117 l 175 367 m 178 790 l 196 965 l 307 965 l 267 790 l 178 790 z "},"ǿ":{"ha":322,"x_min":14,"x_max":308,"o":"m 308 144 q 267 31 308 71 q 161 -8 225 -8 q 71 18 111 -8 l 63 -8 l 14 6 l 32 64 q 14 144 14 100 l 14 647 q 56 760 14 719 q 163 800 99 800 q 250 774 215 800 l 258 800 l 308 786 l 290 728 q 308 647 308 692 l 308 144 m 175 654 q 161 675 175 675 q 147 654 147 675 l 147 439 l 175 529 l 175 654 m 147 138 q 161 117 147 117 q 175 138 175 117 l 175 356 l 147 265 l 147 138 m 121 828 l 139 1003 l 250 1003 l 210 828 l 121 828 z "},"ș":{"ha":317,"x_min":11,"x_max":306,"o":"m 306 144 q 264 31 306 71 q 158 -8 222 -8 q 53 31 94 -8 q 11 144 11 71 l 11 279 l 144 279 l 144 138 q 158 117 144 117 q 172 138 172 117 l 172 260 q 152 318 172 289 q 106 379 132 347 q 42 463 72 418 q 11 568 11 508 l 11 647 q 53 760 11 719 q 160 800 96 800 q 265 760 224 800 q 306 647 306 721 l 306 550 l 172 550 l 172 654 q 158 675 172 675 q 144 654 144 675 l 144 568 q 165 508 144 536 q 213 449 185 479 q 276 364 246 410 q 306 260 306 318 l 306 144 m 107 -22 l 211 -22 l 211 -154 l 193 -229 l 146 -229 l 164 -154 l 107 -154 l 107 -22 z "},"ț":{"ha":224,"x_min":7,"x_max":217,"o":"m 168 944 l 168 792 l 217 792 l 217 672 l 168 672 l 168 153 q 175 126 168 133 q 217 119 182 119 l 217 0 l 182 0 q 104 3 133 0 q 60 19 75 6 q 40 63 44 33 q 35 143 35 92 l 35 672 l 7 672 l 7 792 l 35 792 l 35 944 l 168 944 m 83 -22 l 188 -22 l 188 -154 l 169 -229 l 122 -229 l 140 -154 l 83 -154 l 83 -22 z "},"ẃ":{"ha":547,"x_min":0,"x_max":547,"o":"m 547 792 l 485 0 l 301 0 l 279 514 l 275 639 l 272 639 l 268 514 l 246 0 l 63 0 l 0 792 l 147 792 l 158 275 l 160 153 l 163 153 l 168 275 l 203 792 l 344 792 l 379 275 l 385 153 l 388 153 l 389 276 l 400 792 l 547 792 m 231 828 l 249 1003 l 360 1003 l 319 828 l 231 828 z "},"ẁ":{"ha":547,"x_min":0,"x_max":547,"o":"m 547 792 l 485 0 l 301 0 l 279 514 l 275 639 l 272 639 l 268 514 l 246 0 l 63 0 l 0 792 l 147 792 l 158 275 l 160 153 l 163 153 l 168 275 l 203 792 l 344 792 l 379 275 l 385 153 l 388 153 l 389 276 l 400 792 l 547 792 m 185 1003 l 296 1003 l 314 828 l 225 828 l 185 1003 z "},"ẅ":{"ha":547,"x_min":0,"x_max":547,"o":"m 547 792 l 485 0 l 301 0 l 279 514 l 275 639 l 272 639 l 268 514 l 246 0 l 63 0 l 0 792 l 147 792 l 158 275 l 160 153 l 163 153 l 168 275 l 203 792 l 344 792 l 379 275 l 385 153 l 388 153 l 389 276 l 400 792 l 547 792 m 175 985 l 258 985 l 258 846 l 175 846 l 175 985 m 288 985 l 371 985 l 371 846 l 288 846 l 288 985 z "},"ỳ":{"ha":331,"x_min":-3,"x_max":332,"o":"m 165 364 l 171 226 l 172 226 l 178 364 l 199 790 l 332 790 l 200 -222 l 67 -222 l 97 0 l -3 790 l 144 790 l 165 364 m 78 1003 l 189 1003 l 207 828 l 118 828 l 78 1003 z "}}}
